<svg width="382" height="323" viewBox="0 0 382 323" fill="none" xmlns="http://www.w3.org/2000/svg">
<path d="M204.943 68.2114H14.5936V117.769H204.943V68.2114Z" stroke="#0F006A" stroke-opacity="0.7" stroke-width="1.14333" stroke-linecap="round" stroke-linejoin="round"/>
<path d="M204.934 68.1758H14.5936L33.6241 36.2624H185.903L204.934 68.1758Z" stroke="#0F006A" stroke-opacity="0.7" stroke-width="1.14333" stroke-linecap="round" stroke-linejoin="round"/>
<path d="M33.6241 36.2624V1" stroke="#0F006A" stroke-opacity="0.7" stroke-width="1.14333" stroke-linecap="round" stroke-linejoin="round"/>
<path d="M186.807 36.2624V1" stroke="#0F006A" stroke-opacity="0.7" stroke-width="1.14333" stroke-linecap="round" stroke-linejoin="round"/>
<path d="M339.989 65.3701L341.087 24.1846C341.117 23.1528 341.545 22.1732 342.281 21.4533C343.017 20.7334 344.002 20.3298 345.028 20.3279C346.054 20.3276 347.04 20.7308 347.774 21.4514C348.509 22.172 348.935 23.1529 348.96 24.1846L350.058 65.6106" stroke="#0F006A" stroke-opacity="0.7" stroke-width="1.14333" stroke-linecap="round" stroke-linejoin="round"/>
<path d="M341.087 24.1847L340.822 34.0357H349.217L348.951 24.1847C348.903 23.1671 348.467 22.2072 347.734 21.5042C347.002 20.8012 346.028 20.4089 345.015 20.4089C344.002 20.4089 343.028 20.8012 342.295 21.5042C341.562 22.2072 341.127 23.1671 341.079 24.1847H341.087Z" stroke="#0F006A" stroke-opacity="0.7" stroke-width="1.14333" stroke-linecap="round" stroke-linejoin="round"/>
<path d="M355.798 119.228C370.06 113.165 376.736 96.621 370.708 82.2756C364.681 67.9301 348.232 61.2156 333.969 67.2783C319.707 73.341 313.031 89.8851 319.059 104.231C325.086 118.576 341.535 125.291 355.798 119.228Z" stroke="#0F006A" stroke-opacity="0.7" stroke-width="1.14333" stroke-linecap="round" stroke-linejoin="round"/>
<path d="M366.285 98.3097C369.046 86.4306 361.71 74.5491 349.9 71.7717C338.089 68.9942 326.276 76.3725 323.515 88.2516C320.753 100.131 328.089 112.012 339.9 114.79C351.71 117.567 363.523 110.189 366.285 98.3097Z" stroke="#0F006A" stroke-opacity="0.7" stroke-width="1.14333" stroke-linecap="round" stroke-linejoin="round"/>
<path d="M344.993 25.0308C345.389 25.0308 345.71 24.7078 345.71 24.3093C345.71 23.9109 345.389 23.5879 344.993 23.5879C344.597 23.5879 344.275 23.9109 344.275 24.3093C344.275 24.7078 344.597 25.0308 344.993 25.0308Z" stroke="#0F006A" stroke-opacity="0.7" stroke-width="1.14333" stroke-linecap="round" stroke-linejoin="round"/>
<path d="M286.174 59.928L287.131 23.7482C287.156 22.8417 287.532 21.9808 288.179 21.3487C288.825 20.7167 289.692 20.3632 290.593 20.3636C291.496 20.3655 292.362 20.7209 293.008 21.3544C293.655 21.9879 294.03 22.8497 294.056 23.7571L295.021 60.1863" stroke="#0F006A" stroke-opacity="0.7" stroke-width="1.14333" stroke-linecap="round" stroke-linejoin="round"/>
<path d="M287.131 23.7482L286.901 32.4146H294.286L294.056 23.7571C294.056 22.8335 293.691 21.9477 293.042 21.2946C292.392 20.6414 291.512 20.2745 290.593 20.2745C289.675 20.2745 288.794 20.6414 288.145 21.2946C287.496 21.9477 287.131 22.8335 287.131 23.7571V23.7482Z" stroke="#0F006A" stroke-opacity="0.7" stroke-width="1.14333" stroke-linecap="round" stroke-linejoin="round"/>
<path d="M307.9 101.989C317.524 92.3086 317.524 76.6138 307.9 66.9336C298.275 57.2533 282.671 57.2533 273.047 66.9336C263.422 76.6138 263.422 92.3087 273.047 101.989C282.671 111.669 298.275 111.669 307.9 101.989Z" stroke="#0F006A" stroke-opacity="0.7" stroke-width="1.14333" stroke-linecap="round" stroke-linejoin="round"/>
<path d="M303.618 98.7203C311.435 91.4212 311.89 79.1299 304.633 71.2668C297.376 63.4038 285.156 62.9467 277.338 70.2458C269.52 77.5449 269.066 89.8362 276.323 97.6992C283.58 105.562 295.8 106.019 303.618 98.7203Z" stroke="#0F006A" stroke-opacity="0.7" stroke-width="1.14333" stroke-linecap="round" stroke-linejoin="round"/>
<path d="M290.567 24.4697C290.919 24.4697 291.204 24.1825 291.204 23.8284C291.204 23.4742 290.919 23.1871 290.567 23.1871C290.215 23.1871 289.929 23.4742 289.929 23.8284C289.929 24.1825 290.215 24.4697 290.567 24.4697Z" stroke="#0F006A" stroke-opacity="0.7" stroke-width="1.14333" stroke-linecap="round" stroke-linejoin="round"/>
<path d="M239.205 55.3855L240.09 23.3207C240.111 22.5173 240.443 21.7539 241.015 21.1931C241.588 20.6324 242.355 20.3188 243.154 20.319C243.953 20.3188 244.721 20.6324 245.293 21.1931C245.866 21.7539 246.198 22.5173 246.218 23.3207L247.104 55.5814" stroke="#0F006A" stroke-opacity="0.7" stroke-width="1.14333" stroke-linecap="round" stroke-linejoin="round"/>
<path d="M240.055 23.3296L239.851 30.9984H246.387L246.183 23.3296C246.183 22.5122 245.86 21.7284 245.285 21.1504C244.711 20.5725 243.932 20.2478 243.119 20.2478C242.306 20.2478 241.527 20.5725 240.952 21.1504C240.378 21.7284 240.055 22.5122 240.055 23.3296Z" stroke="#0F006A" stroke-opacity="0.7" stroke-width="1.14333" stroke-linecap="round" stroke-linejoin="round"/>
<path d="M243.004 99.056C255.055 99.056 264.824 89.2302 264.824 77.1094C264.824 64.9887 255.055 55.1628 243.004 55.1628C230.953 55.1628 221.184 64.9887 221.184 77.1094C221.184 89.2302 230.953 99.056 243.004 99.056Z" stroke="#0F006A" stroke-opacity="0.7" stroke-width="1.14333" stroke-linecap="round" stroke-linejoin="round"/>
<path d="M243.004 94.3086C252.448 94.3086 260.104 86.6083 260.104 77.1094C260.104 67.6106 252.448 59.9102 243.004 59.9102C233.56 59.9102 225.904 67.6106 225.904 77.1094C225.904 86.6083 233.56 94.3086 243.004 94.3086Z" stroke="#0F006A" stroke-opacity="0.7" stroke-width="1.14333" stroke-linecap="round" stroke-linejoin="round"/>
<path d="M243.65 23.4276C243.65 23.2788 243.591 23.136 243.487 23.0308C243.382 22.9256 243.24 22.8665 243.092 22.8665C242.944 22.8665 242.802 22.9256 242.698 23.0308C242.593 23.136 242.534 23.2788 242.534 23.4276C242.534 23.5764 242.593 23.7191 242.698 23.8244C242.802 23.9296 242.944 23.9887 243.092 23.9887C243.24 23.9887 243.382 23.9296 243.487 23.8244C243.591 23.7191 243.65 23.5764 243.65 23.4276Z" stroke="#0F006A" stroke-opacity="0.7" stroke-width="1.14333" stroke-linecap="round" stroke-linejoin="round"/>
<path d="M13.3804 261.687H334.809" stroke="#0F006A" stroke-opacity="0.7" stroke-width="1.14333" stroke-linecap="round" stroke-linejoin="round"/>
<path d="M13.3804 239.037H334.809" stroke="#0F006A" stroke-opacity="0.7" stroke-width="1.14333" stroke-linecap="round" stroke-linejoin="round"/>
<path d="M92.7257 109.718C92.7257 109.718 88.0943 124.45 87.8464 130.827C87.5984 137.204 96.631 145.773 101.723 150.707C106.815 155.642 115.892 157.833 128.564 157.334C141.236 156.835 152.235 150.957 152.235 150.957C152.235 150.957 151.996 189.978 152.235 199.054C152.474 208.13 153.218 303.861 153.218 303.861H239.603C239.603 303.861 237.407 214.026 238.133 203.472C238.859 192.917 243.509 162.242 243.509 162.242C243.509 162.242 275.964 177.455 283.279 177.455C290.593 177.455 308.171 157.859 307.445 152.667C306.719 147.474 281.33 132.537 272.546 125.171C263.761 117.805 260.343 110.697 254.241 107.749C248.14 104.801 220.59 98.6641 214.462 97.9516C208.334 97.239 175.179 99.1718 166.147 99.6617C157.114 100.152 141.989 115.623 138.332 118.322C135.514 120.302 132.578 122.105 129.538 123.719C129.538 123.719 131.008 122 128.564 121.51C127.362 121.24 126.138 121.076 124.907 121.02C124.907 121.02 123.685 106.769 122.711 105.309C121.736 103.848 107.337 100.401 101.971 100.855C96.6045 101.309 92.7257 109.718 92.7257 109.718Z" fill="white"/>
<mask id="mask0_6_1229" style="mask-type:luminance" maskUnits="userSpaceOnUse" x="87" y="97" width="221" height="207">
<path d="M92.7257 109.718C92.7257 109.718 88.0943 124.45 87.8464 130.827C87.5984 137.204 96.631 145.773 101.723 150.707C106.815 155.642 115.892 157.833 128.564 157.334C141.236 156.835 152.235 150.957 152.235 150.957C152.235 150.957 151.996 189.978 152.235 199.054C152.474 208.13 153.218 303.861 153.218 303.861H239.603C239.603 303.861 237.407 214.026 238.133 203.472C238.859 192.917 243.509 162.242 243.509 162.242C243.509 162.242 275.964 177.455 283.279 177.455C290.593 177.455 308.171 157.859 307.445 152.667C306.719 147.474 281.33 132.537 272.546 125.171C263.761 117.805 260.343 110.697 254.241 107.749C248.14 104.801 220.59 98.6641 214.462 97.9516C208.334 97.239 175.179 99.1718 166.147 99.6617C157.114 100.152 141.989 115.623 138.332 118.322C135.514 120.302 132.578 122.105 129.538 123.719C129.538 123.719 131.008 122 128.564 121.51C127.362 121.24 126.138 121.076 124.907 121.02C124.907 121.02 123.685 106.769 122.711 105.309C121.736 103.848 107.337 100.401 101.971 100.855C96.6045 101.309 92.7257 109.718 92.7257 109.718Z" fill="white"/>
</mask>
<g mask="url(#mask0_6_1229)">
<path d="M305.577 157.859C306.896 155.668 307.64 153.816 307.481 152.676C306.746 147.518 281.366 132.546 272.581 125.18C263.797 117.814 260.378 110.706 254.277 107.758C248.175 104.81 220.626 98.673 214.498 97.9605C211.255 97.7523 208.003 97.7196 204.757 97.8625C211.974 105.344 192.182 118.82 196.424 119.177C200.666 119.533 219.705 116.62 230.615 111.864C230.615 111.864 243.712 111.49 254.631 118.099C263.921 123.657 287.875 143.493 305.577 157.859Z" fill="#0F006A" fill-opacity="0.7"/>
<path d="M262.654 170.712C262.654 170.712 252.833 160.834 251.744 158.242C250.655 155.65 257.943 127.514 253.923 134.461C251.565 138.514 250.095 143.026 249.61 147.697C249.61 147.697 244.872 129.402 244.509 133.793C244.146 138.184 244.146 149.166 244.146 149.166C244.146 149.166 227.055 129.402 229.977 138.184C232.9 146.966 236.176 157.209 236.176 157.209L212.824 323.688L222.645 320.392L244.465 164.165L262.654 170.712Z" fill="#0F006A" fill-opacity="0.7"/>
<path d="M152.438 159.409C152.438 159.409 152.802 120.219 151.703 122.089C150.605 123.96 149.525 132.332 149.525 132.332C149.525 132.332 144.07 119.524 143.326 123.915C142.582 128.306 144.415 137.819 144.415 137.819C144.415 137.819 137.862 140.384 120.045 143.305C102.228 146.227 105.876 143.305 116.405 138.184C126.935 133.063 135.002 121.359 135.002 115.863C135.002 110.368 131.362 94.9499 120.089 92.7856C108.816 90.6212 85.1631 112.942 83.3478 117.333C81.5324 121.724 97.1446 115.489 97.1446 115.489C97.1446 115.489 99.3231 125.741 100.049 129.028C100.775 132.314 96.0554 137.81 95.6835 139.271C95.3115 140.731 104.415 137.445 103.653 138.54C102.892 139.636 94.1958 146.556 96.02 149.888C97.8442 153.219 112.783 159.044 126.244 160.914C134.997 161.918 143.856 161.409 152.438 159.409Z" fill="#0F006A" fill-opacity="0.7"/>
<path opacity="0.5" d="M152.438 159.409C152.438 159.409 152.802 120.219 151.703 122.089C150.605 123.96 149.525 132.332 149.525 132.332C149.525 132.332 144.07 119.524 143.326 123.915C142.582 128.306 144.415 137.819 144.415 137.819C144.415 137.819 137.862 140.384 120.045 143.305C102.228 146.227 105.876 143.305 116.405 138.184C126.935 133.063 135.002 121.359 135.002 115.863C135.002 110.368 131.362 94.9499 120.089 92.7856C108.816 90.6212 85.1631 112.942 83.3478 117.333C81.5324 121.724 97.1446 115.489 97.1446 115.489C97.1446 115.489 99.3231 125.741 100.049 129.028C100.775 132.314 96.0554 137.81 95.6835 139.271C95.3115 140.731 104.415 137.445 103.653 138.54C102.892 139.636 94.1958 146.556 96.02 149.888C97.8442 153.219 112.783 159.044 126.244 160.914C134.997 161.918 143.856 161.409 152.438 159.409Z" fill="white"/>
<path opacity="0.5" d="M262.654 170.712C262.654 170.712 252.833 160.834 251.744 158.242C250.655 155.65 257.943 127.514 253.923 134.461C251.565 138.514 250.095 143.026 249.61 147.697C249.61 147.697 244.872 129.402 244.509 133.793C244.146 138.184 244.146 149.166 244.146 149.166C244.146 149.166 227.055 129.402 229.977 138.184C232.9 146.966 236.176 157.209 236.176 157.209L212.824 323.688L222.645 320.392L244.465 164.165L262.654 170.712Z" fill="white"/>
<path d="M153.244 303.87H239.639C239.639 303.87 238.957 276.17 238.479 249.734L152.757 243.98C153.005 272.509 153.244 303.87 153.244 303.87Z" fill="#0F006A" fill-opacity="0.7"/>
<path opacity="0.5" d="M305.577 157.859C306.896 155.668 307.64 153.816 307.481 152.676C306.746 147.518 281.366 132.546 272.581 125.18C263.797 117.814 260.378 110.706 254.277 107.758C248.175 104.81 220.626 98.673 214.498 97.9605C211.255 97.7523 208.003 97.7196 204.757 97.8625C211.974 105.344 192.182 118.82 196.424 119.177C200.666 119.533 219.705 116.62 230.615 111.864C230.615 111.864 243.712 111.49 254.631 118.099C263.921 123.657 287.875 143.493 305.577 157.859Z" fill="white"/>
</g>
<path d="M92.7257 109.718C92.7257 109.718 88.0943 124.45 87.8464 130.827C87.5984 137.204 96.631 145.773 101.723 150.707C106.815 155.642 115.892 157.833 128.564 157.334C141.236 156.835 152.235 150.957 152.235 150.957C152.235 150.957 151.996 189.978 152.235 199.054C152.474 208.13 153.218 303.861 153.218 303.861H239.603C239.603 303.861 237.407 214.026 238.133 203.472C238.859 192.917 243.509 162.242 243.509 162.242C243.509 162.242 275.964 177.455 283.279 177.455C290.593 177.455 308.171 157.859 307.445 152.667C306.719 147.474 281.33 132.537 272.546 125.171C263.761 117.805 260.343 110.697 254.241 107.749C248.14 104.801 220.59 98.6641 214.462 97.9516C208.334 97.239 175.179 99.1718 166.147 99.6617C157.114 100.152 141.989 115.623 138.332 118.322C135.514 120.302 132.578 122.105 129.538 123.719C129.538 123.719 131.008 122 128.564 121.51C127.362 121.24 126.138 121.076 124.907 121.02C124.907 121.02 123.685 106.769 122.711 105.309C121.736 103.848 107.337 100.401 101.971 100.855C96.6045 101.309 92.7257 109.718 92.7257 109.718Z" stroke="#0F006A" stroke-opacity="0.7" stroke-width="1.14333" stroke-linecap="round" stroke-linejoin="round"/>
<path d="M152.757 128.128L152.27 150.956L145.93 125.919" stroke="#0F006A" stroke-opacity="0.7" stroke-width="1.14333" stroke-linecap="round" stroke-linejoin="round"/>
<path d="M124.942 121.011C124.942 121.011 115.422 133.526 108.807 134.755" stroke="#0F006A" stroke-opacity="0.7" stroke-width="1.14333" stroke-linecap="round" stroke-linejoin="round"/>
<path d="M129.574 123.71C129.574 123.71 126.403 130.097 122.985 130.836" stroke="#0F006A" stroke-opacity="0.7" stroke-width="1.14333" stroke-linecap="round" stroke-linejoin="round"/>
<path d="M247.688 146.779L243.544 162.25L241.1 146.539" stroke="#0F006A" stroke-opacity="0.7" stroke-width="1.14333" stroke-linecap="round" stroke-linejoin="round"/>
<path d="M192.297 118.063L183.752 125.18L176.428 302.641" stroke="#0F006A" stroke-opacity="0.7" stroke-width="1.14333" stroke-linecap="round" stroke-linejoin="round"/>
<path d="M187.621 139.048C187.621 139.363 187.528 139.672 187.354 139.934C187.18 140.196 186.933 140.4 186.643 140.521C186.353 140.642 186.035 140.673 185.727 140.612C185.42 140.55 185.137 140.398 184.915 140.175C184.694 139.952 184.543 139.668 184.482 139.359C184.42 139.05 184.452 138.729 184.572 138.438C184.692 138.146 184.895 137.897 185.156 137.722C185.416 137.547 185.723 137.454 186.036 137.454C186.456 137.456 186.858 137.625 187.155 137.923C187.451 138.222 187.619 138.626 187.621 139.048Z" fill="#0F006A" fill-opacity="0.7"/>
<path d="M205.226 139.048C205.226 139.363 205.133 139.672 204.959 139.934C204.785 140.196 204.537 140.4 204.248 140.521C203.958 140.642 203.639 140.673 203.332 140.612C203.024 140.55 202.742 140.398 202.52 140.175C202.298 139.952 202.147 139.668 202.086 139.359C202.025 139.05 202.057 138.729 202.177 138.438C202.297 138.146 202.5 137.897 202.76 137.722C203.021 137.547 203.328 137.454 203.641 137.454C204.061 137.456 204.463 137.625 204.759 137.923C205.056 138.222 205.224 138.626 205.226 139.048Z" fill="#0F006A" fill-opacity="0.7"/>
<path d="M187.046 169.821C187.046 170.137 186.953 170.445 186.779 170.707C186.604 170.969 186.357 171.174 186.067 171.294C185.778 171.415 185.459 171.446 185.151 171.385C184.844 171.323 184.561 171.172 184.34 170.949C184.118 170.726 183.967 170.442 183.906 170.132C183.845 169.823 183.876 169.502 183.996 169.211C184.116 168.92 184.319 168.671 184.58 168.496C184.841 168.32 185.147 168.227 185.461 168.227C185.881 168.227 186.284 168.395 186.582 168.694C186.879 168.993 187.046 169.398 187.046 169.821Z" fill="#0F006A" fill-opacity="0.7"/>
<path d="M204.615 169.821C204.615 170.137 204.522 170.445 204.348 170.707C204.174 170.969 203.926 171.174 203.637 171.294C203.347 171.415 203.028 171.446 202.721 171.385C202.413 171.323 202.131 171.172 201.909 170.949C201.687 170.726 201.536 170.442 201.475 170.132C201.414 169.823 201.446 169.502 201.566 169.211C201.685 168.92 201.889 168.671 202.149 168.496C202.41 168.32 202.716 168.227 203.03 168.227C203.238 168.227 203.444 168.268 203.637 168.348C203.829 168.428 204.004 168.546 204.151 168.694C204.298 168.842 204.415 169.018 204.494 169.211C204.574 169.405 204.615 169.612 204.615 169.821Z" fill="#0F006A" fill-opacity="0.7"/>
<path d="M186.435 204.71C186.435 205.025 186.342 205.333 186.168 205.595C185.993 205.858 185.746 206.062 185.456 206.183C185.167 206.303 184.848 206.335 184.54 206.273C184.233 206.212 183.95 206.06 183.729 205.837C183.507 205.614 183.356 205.33 183.295 205.021C183.234 204.711 183.265 204.391 183.385 204.099C183.505 203.808 183.708 203.559 183.969 203.384C184.23 203.209 184.536 203.115 184.85 203.115C185.27 203.115 185.673 203.283 185.97 203.582C186.268 203.881 186.435 204.287 186.435 204.71Z" fill="#0F006A" fill-opacity="0.7"/>
<path d="M204.004 204.71C204.004 205.025 203.911 205.333 203.737 205.595C203.563 205.858 203.315 206.062 203.026 206.183C202.736 206.303 202.417 206.335 202.11 206.273C201.802 206.212 201.52 206.06 201.298 205.837C201.076 205.614 200.925 205.33 200.864 205.021C200.803 204.711 200.835 204.391 200.954 204.099C201.074 203.808 201.278 203.559 201.538 203.384C201.799 203.209 202.105 203.115 202.419 203.115C202.627 203.115 202.833 203.156 203.026 203.237C203.218 203.317 203.393 203.434 203.54 203.582C203.687 203.73 203.804 203.906 203.883 204.099C203.963 204.293 204.004 204.5 204.004 204.71Z" fill="#0F006A" fill-opacity="0.7"/>
<path d="M111.278 82.9702C111.278 82.9702 104.929 82.9701 102.732 83.7005C100.536 84.4309 92.4866 99.4123 90.3347 104.81C89.0048 108.328 88.5017 112.108 88.8647 115.854L100.581 110.207L103.999 125.919C103.999 125.919 122.542 111.196 124.986 106.324C127.43 101.452 121.816 87.6641 121.816 87.6641L111.278 82.9702Z" fill="#0F006A" fill-opacity="0.7" stroke="#0F006A" stroke-opacity="0.7" stroke-width="1.14333" stroke-linecap="round" stroke-linejoin="round"/>
<path d="M192.784 92.7856C192.784 92.7856 181.068 95.9742 179.846 101.871C178.624 107.767 188.631 117.084 190.588 118.794C192.545 120.504 210.593 116.825 218.651 114.866C226.71 112.906 237.443 107.74 237.195 103.572C236.947 99.4034 232.067 97.6843 230.606 94.2463C229.145 90.8082 228.162 88.8487 223.77 88.3588C219.391 87.928 214.985 87.8446 210.593 88.1094C208.875 88.3677 192.784 92.7856 192.784 92.7856Z" fill="#0F006A" fill-opacity="0.7" stroke="#0F006A" stroke-opacity="0.7" stroke-width="1.14333" stroke-linecap="round" stroke-linejoin="round"/>
<path d="M192.297 118.063C192.297 118.063 191.075 115.614 186.435 115.854C181.794 116.095 178.137 121.252 178.137 121.252C178.137 121.252 187.17 123.22 192.297 118.063Z" fill="#0F006A" fill-opacity="0.7" stroke="#0F006A" stroke-opacity="0.7" stroke-width="1.14333" stroke-linecap="round" stroke-linejoin="round"/>
<path d="M192.297 118.063C192.297 118.063 194.245 114.385 198.151 118.313C202.056 122.241 204.491 128.85 204.491 128.85C204.491 128.85 199.373 131.058 194.493 125.901C189.614 120.744 192.297 118.063 192.297 118.063Z" fill="#0F006A" fill-opacity="0.7" stroke="#0F006A" stroke-opacity="0.7" stroke-width="1.14333" stroke-linecap="round" stroke-linejoin="round"/>
<path d="M230.128 97.2034C230.128 97.2034 230.376 101.871 221.582 106.529C215.302 109.721 208.789 112.427 202.1 114.625" stroke="white" stroke-width="1.14333" stroke-linecap="round" stroke-linejoin="round"/>
<path d="M215.268 103.394C215.268 103.394 221.821 99.1629 222.795 96.2681C223.77 93.3734 220.847 91.8147 220.847 91.8147" stroke="white" stroke-width="1.14333" stroke-linecap="round" stroke-linejoin="round"/>
<path d="M192.784 117.084C192.784 117.084 186.922 109.958 186.922 104.614C186.922 99.2698 189.118 98.4771 189.118 98.4771" stroke="white" stroke-width="1.14333" stroke-linecap="round" stroke-linejoin="round"/>
<path d="M193.112 36.0219C190.963 33.4534 189.126 30.6368 187.639 27.6316C185.558 23.1782 182.689 15.8389 188.162 11.3855C193.634 6.93201 214.728 4.04617 224.912 5.35548C235.096 6.6648 243.677 17.1482 251.753 31.8268C259.829 46.5053 262.442 57.7815 260.609 62.7604C258.775 67.7394 251.487 73.2438 242.898 72.9855C234.308 72.7272 229.349 63.5442 224.398 58.8325C219.448 54.1207 204.031 44.4122 201.985 42.3102C199.576 40.1655 197.051 38.1555 194.422 36.2891L193.112 36.0219Z" fill="white"/>
<mask id="mask1_6_1229" style="mask-type:luminance" maskUnits="userSpaceOnUse" x="185" y="5" width="77" height="68">
<path d="M193.112 36.0219C190.963 33.4534 189.126 30.6368 187.639 27.6316C185.558 23.1782 182.689 15.8389 188.162 11.3855C193.634 6.93201 214.728 4.04617 224.912 5.35548C235.096 6.6648 243.677 17.1482 251.753 31.8268C259.829 46.5053 262.442 57.7815 260.609 62.7604C258.775 67.7394 251.487 73.2438 242.898 72.9855C234.308 72.7272 229.349 63.5442 224.398 58.8325C219.448 54.1207 204.031 44.4122 201.985 42.3102C199.576 40.1655 197.051 38.1555 194.422 36.2891L193.112 36.0219Z" fill="white"/>
</mask>
<g mask="url(#mask1_6_1229)">
<path d="M231.341 7.49316C235.326 12.3741 244.704 24.7191 245.563 33.911C246.652 45.6147 224.46 39.7628 224.46 39.7628C224.46 39.7628 239.01 30.9806 234.644 32.0762C230.278 33.1717 226.674 30.6155 220.095 30.6155C213.515 30.6155 205.182 21.8333 205.182 24.7636C205.182 27.694 205.908 28.4244 207.732 30.9985C209.556 33.5725 205.908 30.9985 214.64 43.4681C217.296 47.2892 219.351 51.7693 221.361 56.3208C222.565 57.2649 223.61 58.1021 224.389 58.877C229.34 63.5888 234.29 72.7629 242.889 73.0301C251.487 73.2973 258.829 67.7839 260.6 62.805C262.371 57.826 259.812 46.5499 251.744 31.8713C245.43 20.3458 238.797 11.4567 231.341 7.49316Z" fill="#0F006A" fill-opacity="0.7"/>
<path opacity="0.5" d="M231.341 7.49316C235.326 12.3741 244.704 24.7191 245.563 33.911C246.652 45.6147 224.46 39.7628 224.46 39.7628C224.46 39.7628 239.01 30.9806 234.644 32.0762C230.278 33.1717 226.674 30.6155 220.095 30.6155C213.515 30.6155 205.182 21.8333 205.182 24.7636C205.182 27.694 205.908 28.4244 207.732 30.9985C209.556 33.5725 205.908 30.9985 214.64 43.4681C217.296 47.2892 219.351 51.7693 221.361 56.3208C222.565 57.2649 223.61 58.1021 224.389 58.877C229.34 63.5888 234.29 72.7629 242.889 73.0301C251.487 73.2973 258.829 67.7839 260.6 62.805C262.371 57.826 259.812 46.5499 251.744 31.8713C245.43 20.3458 238.797 11.4567 231.341 7.49316Z" fill="white"/>
</g>
<path d="M193.112 36.0219C190.963 33.4534 189.126 30.6368 187.639 27.6316C185.558 23.1782 182.689 15.8389 188.162 11.3855C193.634 6.93201 214.728 4.04617 224.912 5.35548C235.096 6.6648 243.677 17.1482 251.753 31.8268C259.829 46.5053 262.442 57.7815 260.609 62.7604C258.775 67.7394 251.487 73.2438 242.898 72.9855C234.308 72.7272 229.349 63.5442 224.398 58.8325C219.448 54.1207 204.031 44.4122 201.985 42.3102C199.576 40.1655 197.051 38.1555 194.422 36.2891L193.112 36.0219Z" stroke="#0F006A" stroke-opacity="0.7" stroke-width="1.14333" stroke-linecap="round" stroke-linejoin="round"/>
<path d="M200.905 26.9191C200.905 26.9191 198.319 25.4761 194.006 19.9806" stroke="#0F006A" stroke-opacity="0.7" stroke-width="1.14333" stroke-linecap="round" stroke-linejoin="round"/>
<path d="M203.26 18.2794C203.132 17.5054 203.108 16.7174 203.189 15.9369" stroke="#0F006A" stroke-opacity="0.7" stroke-width="1.14333" stroke-linecap="round" stroke-linejoin="round"/>
<path d="M207.502 28.077C206.042 25.8338 204.853 23.4238 203.96 20.898" stroke="#0F006A" stroke-opacity="0.7" stroke-width="1.14333" stroke-linecap="round" stroke-linejoin="round"/>
<path d="M228.49 39.647C228.49 39.647 235.68 41.09 242.003 39.941" stroke="#0F006A" stroke-opacity="0.7" stroke-width="1.14333" stroke-linecap="round" stroke-linejoin="round"/>
<path d="M250.637 53.2033C251.293 53.2033 251.966 53.2033 252.639 53.2033" stroke="#0F006A" stroke-opacity="0.7" stroke-width="1.14333" stroke-linecap="round" stroke-linejoin="round"/>
<path d="M238.549 51.5021C241.483 52.2413 244.471 52.7417 247.485 52.9984" stroke="#0F006A" stroke-opacity="0.7" stroke-width="1.14333" stroke-linecap="round" stroke-linejoin="round"/>
<path d="M237.159 56.9888C237.159 56.9888 244.306 64.809 249.477 66.2519" stroke="#0F006A" stroke-opacity="0.7" stroke-width="1.14333" stroke-linecap="round" stroke-linejoin="round"/>
<path d="M231.686 61.1572C231.686 60.3734 227.772 51.1993 220.998 44.6438C214.223 38.0883 201.188 36.5207 196.76 36.779C192.333 37.0373 190.243 39.1393 190.243 39.1393C190.243 39.1393 185.558 56.4454 183.211 62.4754C181.346 67.6681 181.277 73.3422 183.017 78.5791C184.638 83.237 186.802 87.6858 189.463 91.8325C193.377 98.1208 193.377 115.427 193.377 115.427C193.377 115.427 212.922 106.52 215.268 103.367C217.615 100.214 216.304 89.2139 217.349 83.9677C217.564 82.8982 217.878 81.8515 218.288 80.8414C219.553 79.4533 220.561 77.8485 221.263 76.1029C221.263 76.1029 231.686 61.9766 231.686 61.1572Z" fill="white"/>
<mask id="mask2_6_1229" style="mask-type:luminance" maskUnits="userSpaceOnUse" x="181" y="36" width="51" height="80">
<path d="M231.686 61.1572C231.686 60.3734 227.772 51.1993 220.998 44.6438C214.223 38.0883 201.188 36.5207 196.76 36.779C192.333 37.0373 190.243 39.1393 190.243 39.1393C190.243 39.1393 185.558 56.4454 183.211 62.4754C181.346 67.6681 181.277 73.3422 183.017 78.5791C184.638 83.237 186.802 87.6858 189.463 91.8325C193.377 98.1208 193.377 115.427 193.377 115.427C193.377 115.427 212.922 106.52 215.268 103.367C217.615 100.214 216.304 89.2139 217.349 83.9677C217.564 82.8982 217.878 81.8515 218.288 80.8414C219.553 79.4533 220.561 77.8485 221.263 76.1029C221.263 76.1029 231.686 61.9766 231.686 61.1572Z" fill="white"/>
</mask>
<g mask="url(#mask2_6_1229)">
<path d="M225.842 50.3531L220.095 50.0057C218.482 57.4461 216.411 64.7787 213.896 71.9612C210.256 81.839 205.164 87.6908 200.072 89.5256C194.98 91.3605 189.162 88.7953 191.341 91.7167C192.634 93.4536 200.48 100.873 209.22 107.526C212.151 105.888 214.533 104.365 215.251 103.394C217.597 100.25 216.287 89.2406 217.332 83.9944C217.546 82.9249 217.86 81.8782 218.27 80.8681C219.536 79.4801 220.543 77.8752 221.246 76.1297C221.246 76.1297 231.669 61.9766 231.669 61.1839C231.686 60.6139 229.597 55.5815 225.842 50.3531Z" fill="#0F006A" fill-opacity="0.7"/>
<path opacity="0.5" d="M225.842 50.3531L220.095 50.0057C218.482 57.4461 216.411 64.7787 213.896 71.9612C210.256 81.839 205.164 87.6908 200.072 89.5256C194.98 91.3605 189.162 88.7953 191.341 91.7167C192.634 93.4536 200.48 100.873 209.22 107.526C212.151 105.888 214.533 104.365 215.251 103.394C217.597 100.25 216.287 89.2406 217.332 83.9944C217.546 82.9249 217.86 81.8782 218.27 80.8681C219.536 79.4801 220.543 77.8752 221.246 76.1297C221.246 76.1297 231.669 61.9766 231.669 61.1839C231.686 60.6139 229.597 55.5815 225.842 50.3531Z" fill="white"/>
</g>
<path d="M231.686 61.1572C231.686 60.3734 227.772 51.1993 220.998 44.6438C214.223 38.0883 201.188 36.5207 196.76 36.779C192.333 37.0373 190.243 39.1393 190.243 39.1393C190.243 39.1393 185.558 56.4454 183.211 62.4754C181.346 67.6681 181.277 73.3422 183.017 78.5791C184.638 83.237 186.802 87.6858 189.463 91.8325C193.377 98.1208 193.377 115.427 193.377 115.427C193.377 115.427 212.922 106.52 215.268 103.367C217.615 100.214 216.304 89.2139 217.349 83.9677C217.564 82.8982 217.878 81.8515 218.288 80.8414C219.553 79.4533 220.561 77.8485 221.263 76.1029C221.263 76.1029 231.686 61.9766 231.686 61.1572Z" stroke="#0F006A" stroke-opacity="0.7" stroke-width="1.14333" stroke-linecap="round" stroke-linejoin="round"/>
<path d="M198.585 55.1628C198.585 55.1628 197.805 58.307 195.202 59.3491C192.598 60.3912 189.207 60.1418 190.243 61.9766C191.279 63.8114 195.202 64.8535 195.202 64.8535" stroke="#0F006A" stroke-opacity="0.7" stroke-width="1.14333" stroke-linecap="round" stroke-linejoin="round"/>
<path d="M191.553 71.409C191.553 71.409 195.981 73.2438 198.585 71.9345" stroke="#0F006A" stroke-opacity="0.7" stroke-width="1.14333" stroke-linecap="round" stroke-linejoin="round"/>
<path d="M207.449 57.7815C207.449 57.7815 206.926 62.2349 212.399 61.4511" stroke="#0F006A" stroke-opacity="0.7" stroke-width="1.14333" stroke-linecap="round" stroke-linejoin="round"/>
<path d="M189.986 53.5863C189.986 53.5863 192.589 57.7815 196.238 55.1628" stroke="#0F006A" stroke-opacity="0.7" stroke-width="1.14333" stroke-linecap="round" stroke-linejoin="round"/>
<path d="M208.751 51.7515C208.751 51.7515 213.444 50.1749 215.525 55.9466" stroke="#0F006A" stroke-opacity="0.7" stroke-width="1.14333" stroke-linecap="round" stroke-linejoin="round"/>
<path d="M198.585 49.6584C198.585 49.6584 195.459 44.9377 191.031 48.3402" stroke="#0F006A" stroke-opacity="0.7" stroke-width="1.14333" stroke-linecap="round" stroke-linejoin="round"/>
<path d="M198.85 69.3159C198.85 69.3159 199.107 73.2439 201.188 74.0366" stroke="#0F006A" stroke-opacity="0.7" stroke-width="1.14333" stroke-linecap="round" stroke-linejoin="round"/>
<path d="M222.565 74.2949C222.565 74.2949 215.268 83.2018 210.318 84.7783" stroke="#0F006A" stroke-opacity="0.7" stroke-width="1.14333" stroke-linecap="round" stroke-linejoin="round"/>
<path d="M221.892 54.3701C221.892 54.3701 218.501 58.4406 218.881 61.8786C219.262 65.3167 224.531 68.7547 226.037 68.7547C227.542 68.7547 231.686 62.5199 231.686 62.5199C231.686 62.5199 225.7 55.9377 221.892 54.3701Z" fill="#0F006A" fill-opacity="0.7" stroke="#0F006A" stroke-opacity="0.7" stroke-width="1.14333" stroke-linecap="round" stroke-linejoin="round"/>
<path d="M198.638 42.711C198.638 42.711 195.706 45.6592 188.631 45.6592C184.625 45.6907 180.624 45.3628 176.676 44.6794C176.676 44.6794 192.536 40.7515 198.638 42.711Z" fill="#0F006A" fill-opacity="0.7" stroke="#0F006A" stroke-opacity="0.7" stroke-width="1.14333" stroke-linecap="round" stroke-linejoin="round"/>
<path d="M149.162 89.5969C150.048 92.9181 152.141 95.7842 155.026 97.6287C157.912 99.4732 161.38 100.162 164.746 99.5587C168.112 98.9555 171.13 97.1042 173.205 94.3708C175.279 91.6374 176.259 88.2208 175.95 84.7961L149.162 89.5969Z" fill="white"/>
<mask id="mask3_6_1229" style="mask-type:luminance" maskUnits="userSpaceOnUse" x="149" y="84" width="28" height="16">
<path d="M149.162 89.5969C150.048 92.9181 152.141 95.7842 155.026 97.6287C157.912 99.4732 161.38 100.162 164.746 99.5587C168.112 98.9555 171.13 97.1042 173.205 94.3708C175.279 91.6374 176.259 88.2208 175.95 84.7961L149.162 89.5969Z" fill="white"/>
</mask>
<g mask="url(#mask3_6_1229)">
<path opacity="0.42" d="M149.162 89.5969C150.048 92.9181 152.141 95.7842 155.026 97.6287C157.912 99.4732 161.38 100.162 164.746 99.5587C168.112 98.9555 171.13 97.1042 173.205 94.3708C175.279 91.6374 176.259 88.2208 175.95 84.7961L149.162 89.5969Z" fill="black"/>
</g>
<path d="M149.162 89.5969C150.048 92.9181 152.141 95.7842 155.026 97.6287C157.912 99.4732 161.38 100.162 164.746 99.5587C168.112 98.9555 171.13 97.1042 173.205 94.3708C175.279 91.6374 176.259 88.2208 175.95 84.7961L149.162 89.5969Z" stroke="#0F006A" stroke-opacity="0.7" stroke-width="1.14333" stroke-linecap="round" stroke-linejoin="round"/>
<path d="M132.505 54.0316C133.373 52.3594 133.871 50.5182 133.966 48.6341C133.966 45.962 132.992 41.5085 131.531 42.0073C130.069 42.5061 130.069 46.1758 130.309 47.4049C130.413 48.4737 130.332 49.5527 130.069 50.5936C130.069 50.5936 128.847 52.8025 129.821 54.5215C130.796 56.2406 132.505 54.0316 132.505 54.0316Z" fill="white" stroke="#0F006A" stroke-opacity="0.7" stroke-width="1.14333" stroke-linecap="round" stroke-linejoin="round"/>
<path d="M149.162 89.5969L122.719 32.5215C122.563 32.1845 122.341 31.8821 122.068 31.6315C121.794 31.3809 121.474 31.1872 121.126 31.0614C120.778 30.9356 120.409 30.8802 120.039 30.8984C119.67 30.9167 119.308 31.0081 118.973 31.1676C118.636 31.3275 118.334 31.5535 118.085 31.8325C117.836 32.1114 117.645 32.4376 117.522 32.7919C117.4 33.1462 117.35 33.5214 117.374 33.8956C117.398 34.2698 117.496 34.6354 117.663 34.9709L118.823 37.3134" stroke="#0F006A" stroke-opacity="0.7" stroke-width="1.14333" stroke-linecap="round" stroke-linejoin="round"/>
<path d="M122.498 44.9199C122.498 44.9199 122.498 47.8681 123.72 48.6074C124.942 49.3467 131.283 53.0608 131.531 50.8163C131.779 48.5718 127.103 45.6592 125.677 44.9199C124.251 44.1807 123.72 44.43 122.498 44.9199Z" stroke="#0F006A" stroke-opacity="0.7" stroke-width="1.14333" stroke-linecap="round" stroke-linejoin="round"/>
<path d="M123.72 48.6074C123.72 48.6074 119.815 56.4543 119.815 59.8924V72.9054C119.815 72.9054 104.69 88.8576 103.955 93.026C103.22 97.1945 101.298 107.277 103.955 107.277C106.611 107.277 119.089 95.2439 120.063 92.7945C121.037 90.3451 126.89 74.1434 126.89 74.1434C127.381 73.3483 127.953 72.6078 128.599 71.9345C129.574 70.9459 129.821 64.5685 129.821 64.5685C129.821 64.5685 132.478 64.3191 132.478 62.8495V54.0317C132.505 52.0365 123.72 48.6074 123.72 48.6074Z" fill="white"/>
<mask id="mask4_6_1229" style="mask-type:luminance" maskUnits="userSpaceOnUse" x="102" y="48" width="31" height="60">
<path d="M123.72 48.6074C123.72 48.6074 119.815 56.4543 119.815 59.8924V72.9054C119.815 72.9054 104.69 88.8576 103.955 93.026C103.22 97.1945 101.298 107.277 103.955 107.277C106.611 107.277 119.089 95.2439 120.063 92.7945C121.037 90.3451 126.89 74.1434 126.89 74.1434C127.381 73.3483 127.953 72.6078 128.599 71.9345C129.574 70.9459 129.821 64.5685 129.821 64.5685C129.821 64.5685 132.478 64.3191 132.478 62.8495V54.0317C132.505 52.0365 123.72 48.6074 123.72 48.6074Z" fill="white"/>
</mask>
<g mask="url(#mask4_6_1229)">
<path d="M120.063 92.7856C121.037 90.3273 126.89 74.1345 126.89 74.1345C127.381 73.3394 127.954 72.5989 128.599 71.9256C129.574 70.937 129.821 64.5596 129.821 64.5596C129.821 64.5596 132.478 64.3102 132.478 62.8406V54.0317C132.478 53.6041 132.062 53.141 131.415 52.6066L129.644 60.6228L122.622 61.3264C123.726 62.9599 124.555 64.7655 125.075 66.6706C125.783 69.494 124.73 74.4374 122.976 79.0244C121.32 83.3532 104.681 103.688 102.794 105.994C102.998 106.823 103.361 107.331 103.963 107.331C106.638 107.268 119.089 95.235 120.063 92.7856Z" fill="#0F006A" fill-opacity="0.7"/>
<path opacity="0.5" d="M120.063 92.7856C121.037 90.3273 126.89 74.1345 126.89 74.1345C127.381 73.3394 127.954 72.5989 128.599 71.9256C129.574 70.937 129.821 64.5596 129.821 64.5596C129.821 64.5596 132.478 64.3102 132.478 62.8406V54.0317C132.478 53.6041 132.062 53.141 131.415 52.6066L129.644 60.6228L122.622 61.3264C123.726 62.9599 124.555 64.7655 125.075 66.6706C125.783 69.494 124.73 74.4374 122.976 79.0244C121.32 83.3532 104.681 103.688 102.794 105.994C102.998 106.823 103.361 107.331 103.963 107.331C106.638 107.268 119.089 95.235 120.063 92.7856Z" fill="white"/>
</g>
<path d="M123.72 48.6074C123.72 48.6074 119.815 56.4543 119.815 59.8924V72.9054C119.815 72.9054 104.69 88.8576 103.955 93.026C103.22 97.1945 101.298 107.277 103.955 107.277C106.611 107.277 119.089 95.2439 120.063 92.7945C121.037 90.3451 126.89 74.1434 126.89 74.1434C127.381 73.3483 127.953 72.6078 128.599 71.9345C129.574 70.9459 129.821 64.5685 129.821 64.5685C129.821 64.5685 132.478 64.3191 132.478 62.8495V54.0317C132.505 52.0365 123.72 48.6074 123.72 48.6074Z" stroke="#0F006A" stroke-opacity="0.7" stroke-width="1.14333" stroke-linecap="round" stroke-linejoin="round"/>
<path d="M129.821 64.5596L129.086 62.5912L126.651 62.8406" stroke="#0F006A" stroke-opacity="0.7" stroke-width="1.14333" stroke-linecap="round" stroke-linejoin="round"/>
<path d="M123.233 58.4227L131.531 58.6632" stroke="#0F006A" stroke-opacity="0.7" stroke-width="1.14333" stroke-linecap="round" stroke-linejoin="round"/>
<path d="M123.72 53.7556L131.77 55.724" stroke="#0F006A" stroke-opacity="0.7" stroke-width="1.14333" stroke-linecap="round" stroke-linejoin="round"/>
<path d="M289.903 153.655C289.903 153.655 268.649 157.334 270.872 162.001L271.607 165.439C271.607 165.439 256.234 185.034 256.96 185.809C257.686 186.584 285.298 202.99 286.245 202.99C287.193 202.99 304.55 171.816 308.207 165.68C311.864 159.543 312.36 153.905 307.72 150.956C303.08 148.008 297.979 145.309 297.979 145.309" fill="white"/>
<mask id="mask5_6_1229" style="mask-type:luminance" maskUnits="userSpaceOnUse" x="256" y="145" width="56" height="58">
<path d="M289.903 153.655C289.903 153.655 268.649 157.334 270.872 162.001L271.607 165.439C271.607 165.439 256.234 185.034 256.96 185.809C257.686 186.584 285.298 202.99 286.245 202.99C287.193 202.99 304.55 171.816 308.207 165.68C311.864 159.543 312.36 153.905 307.72 150.956C303.08 148.008 297.979 145.309 297.979 145.309" fill="white"/>
</mask>
<g mask="url(#mask5_6_1229)">
<path d="M307.72 150.956C303.08 148.008 297.979 145.309 297.979 145.309L295.012 148.382C298.023 150.965 303.159 155.731 303.416 158.305C303.779 161.965 298.324 169.287 297.598 170.774C296.872 172.262 290.319 160.531 284.138 160.531C277.956 160.531 284.403 162.847 287.68 166.446C290.956 170.044 291.373 175.896 288.822 179.556C286.431 182.995 260.662 181.267 265.311 191.02C273.741 196.088 285.581 203.017 286.219 203.017C287.193 203.017 304.523 171.843 308.18 165.706C311.838 159.569 312.36 153.905 307.72 150.956Z" fill="#0F006A" fill-opacity="0.7"/>
<path opacity="0.5" d="M307.72 150.956C303.08 148.008 297.979 145.309 297.979 145.309L295.012 148.382C298.023 150.965 303.159 155.731 303.416 158.305C303.779 161.965 298.324 169.287 297.598 170.774C296.872 172.262 290.319 160.531 284.138 160.531C277.956 160.531 284.403 162.847 287.68 166.446C290.956 170.044 291.373 175.896 288.822 179.556C286.431 182.995 260.662 181.267 265.311 191.02C273.741 196.088 285.581 203.017 286.219 203.017C287.193 203.017 304.523 171.843 308.18 165.706C311.838 159.569 312.36 153.905 307.72 150.956Z" fill="white"/>
</g>
<path d="M289.903 153.655C289.903 153.655 268.649 157.334 270.872 162.001L271.607 165.439C271.607 165.439 256.234 185.034 256.96 185.809C257.686 186.584 285.298 202.99 286.245 202.99C287.193 202.99 304.55 171.816 308.207 165.68C311.864 159.543 312.36 153.905 307.72 150.956C303.08 148.008 297.979 145.309 297.979 145.309" stroke="#0F006A" stroke-opacity="0.7" stroke-width="1.14333" stroke-linecap="round" stroke-linejoin="round"/>
<path d="M274.777 163.961C274.777 163.961 282.34 161.021 287.706 166.419C293.073 171.816 294.056 174.025 294.056 174.025C293.867 171.823 293.228 169.683 292.178 167.741C291.128 165.799 289.69 164.097 287.954 162.74" stroke="#0F006A" stroke-opacity="0.7" stroke-width="1.14333" stroke-linecap="round" stroke-linejoin="round"/>
<path d="M246.714 197.593C246.714 197.593 244.27 200.782 241.835 202.046C238.176 204.129 235.076 207.076 232.802 210.633C229.871 215.086 226.214 218.978 228.374 220.697C229.638 221.717 231.185 222.318 232.802 222.416C232.802 222.416 234.263 225.855 236.22 226.095C237.192 226.233 238.171 226.317 239.152 226.344C239.152 226.344 240.852 228.063 241.808 228.063H244.297C244.297 228.063 245.271 229.293 247.467 228.063C249.663 226.834 251.895 219.468 252.594 217.019C253.294 214.569 253.329 209.403 253.329 209.403L256.748 204.496L248.937 196.64L246.714 197.593Z" fill="white"/>
<mask id="mask6_6_1229" style="mask-type:luminance" maskUnits="userSpaceOnUse" x="227" y="196" width="30" height="33">
<path d="M246.714 197.593C246.714 197.593 244.27 200.782 241.835 202.046C238.176 204.129 235.076 207.076 232.802 210.633C229.871 215.086 226.214 218.978 228.374 220.697C229.638 221.717 231.185 222.318 232.802 222.416C232.802 222.416 234.263 225.855 236.22 226.095C237.192 226.233 238.171 226.317 239.152 226.344C239.152 226.344 240.852 228.063 241.808 228.063H244.297C244.297 228.063 245.271 229.293 247.467 228.063C249.663 226.834 251.895 219.468 252.594 217.019C253.294 214.569 253.329 209.403 253.329 209.403L256.748 204.496L248.937 196.64L246.714 197.593Z" fill="white"/>
</mask>
<g mask="url(#mask6_6_1229)">
<path d="M246.714 197.593C246.117 198.347 245.475 199.063 244.793 199.739L248.282 207.836C248.282 207.836 245.625 220.84 243.721 224.429C242.951 225.899 241.348 226.46 239.718 226.825C240.297 227.419 241.031 227.836 241.835 228.028H244.297C244.297 228.028 245.271 229.257 247.467 228.028C249.663 226.799 251.895 219.433 252.594 216.983C253.294 214.534 253.329 209.368 253.329 209.368L256.748 204.46L248.937 196.604L246.714 197.593Z" fill="#0F006A" fill-opacity="0.7"/>
<path opacity="0.5" d="M246.714 197.593C246.117 198.347 245.475 199.063 244.793 199.739L248.282 207.836C248.282 207.836 245.625 220.84 243.721 224.429C242.951 225.899 241.348 226.46 239.718 226.825C240.297 227.419 241.031 227.836 241.835 228.028H244.297C244.297 228.028 245.271 229.257 247.467 228.028C249.663 226.799 251.895 219.433 252.594 216.983C253.294 214.534 253.329 209.368 253.329 209.368L256.748 204.46L248.937 196.604L246.714 197.593Z" fill="white"/>
</g>
<path d="M246.714 197.593C246.714 197.593 244.27 200.782 241.835 202.046C238.176 204.129 235.076 207.076 232.802 210.633C229.871 215.086 226.214 218.978 228.374 220.697C229.638 221.717 231.185 222.318 232.802 222.416C232.802 222.416 234.263 225.855 236.22 226.095C237.192 226.233 238.171 226.317 239.152 226.344C239.152 226.344 240.852 228.063 241.808 228.063H244.297C244.297 228.063 245.271 229.293 247.467 228.063C249.663 226.834 251.895 219.468 252.594 217.019C253.294 214.569 253.329 209.403 253.329 209.403L256.748 204.496L248.937 196.64L246.714 197.593Z" stroke="#0F006A" stroke-opacity="0.7" stroke-width="1.14333" stroke-linecap="round" stroke-linejoin="round"/>
<path d="M256.234 182.861C256.234 182.861 285.023 198.083 286.732 199.063C288.441 200.042 289.176 202.991 288.689 206.188C288.202 209.386 291.612 221.41 287.954 221.41C284.297 221.41 268.428 216.502 259.156 211.345C249.884 206.188 245.244 198.582 245.244 197.602C245.244 196.622 256.234 182.861 256.234 182.861Z" fill="#0F006A" fill-opacity="0.7" stroke="#0F006A" stroke-opacity="0.7" stroke-width="1.14333" stroke-linecap="round" stroke-linejoin="round"/>
<path d="M230.128 64.0698L237.168 56.9442C240.932 53.1588 234.325 45.8106 231.934 43.094C226.326 36.7925 219.226 32.0189 211.292 29.2171C206.484 27.4891 196.034 24.2114 193.386 30.7402L188.693 42.2657C188.693 42.2657 201.463 41.2236 212.408 46.9863C223.353 52.7491 230.128 64.0698 230.128 64.0698Z" fill="white"/>
<mask id="mask7_6_1229" style="mask-type:luminance" maskUnits="userSpaceOnUse" x="188" y="26" width="51" height="39">
<path d="M230.128 64.0698L237.168 56.9442C240.932 53.1588 234.325 45.8106 231.934 43.094C226.326 36.7925 219.226 32.0189 211.292 29.2171C206.484 27.4891 196.034 24.2114 193.386 30.7402L188.693 42.2657C188.693 42.2657 201.463 41.2236 212.408 46.9863C223.353 52.7491 230.128 64.0698 230.128 64.0698Z" fill="white"/>
</mask>
<g mask="url(#mask7_6_1229)">
<path d="M211.283 29.2616C207.201 27.792 199.036 25.2268 195.051 28.4956C198.266 28.4065 203.34 29.3239 210.991 33.1806C227.002 41.1968 227.365 43.7887 226.267 47.8147C225.815 49.4892 223.734 51.6624 221.449 53.6309C224.76 56.736 227.676 60.2424 230.128 64.0697L237.168 56.9442C240.932 53.1588 234.325 45.8106 231.934 43.094C226.319 36.8074 219.215 32.0495 211.283 29.2616Z" fill="#0F006A" fill-opacity="0.7"/>
<path opacity="0.5" d="M211.283 29.2616C207.201 27.792 199.036 25.2268 195.051 28.4956C198.266 28.4065 203.34 29.3239 210.991 33.1806C227.002 41.1968 227.365 43.7887 226.267 47.8147C225.815 49.4892 223.734 51.6624 221.449 53.6309C224.76 56.736 227.676 60.2424 230.128 64.0697L237.168 56.9442C240.932 53.1588 234.325 45.8106 231.934 43.094C226.319 36.8074 219.215 32.0495 211.283 29.2616Z" fill="white"/>
</g>
<path d="M230.128 64.0698L237.168 56.9442C240.932 53.1588 234.325 45.8106 231.934 43.094C226.326 36.7925 219.226 32.0189 211.292 29.2171C206.484 27.4891 196.034 24.2114 193.386 30.7402L188.693 42.2657C188.693 42.2657 201.463 41.2236 212.408 46.9863C223.353 52.7491 230.128 64.0698 230.128 64.0698Z" stroke="#0F006A" stroke-opacity="0.7" stroke-width="1.14333" stroke-linecap="round" stroke-linejoin="round"/>
<path d="M222.565 68.0066C222.565 68.0066 230.641 61.4511 232.988 65.3791C235.335 69.307 229.862 74.8204 225.691 74.8204C221.52 74.8204 219.439 73.2439 219.439 73.2439" fill="white"/>
<mask id="mask8_6_1229" style="mask-type:luminance" maskUnits="userSpaceOnUse" x="219" y="64" width="15" height="11">
<path d="M222.565 68.0066C222.565 68.0066 230.641 61.4511 232.988 65.3791C235.335 69.307 229.862 74.8204 225.691 74.8204C221.52 74.8204 219.439 73.2439 219.439 73.2439" fill="white"/>
</mask>
<g mask="url(#mask8_6_1229)">
<path d="M222.565 68.0066C222.565 68.0066 230.641 61.4511 232.988 65.3791C235.335 69.307 229.862 74.8204 225.691 74.8204C221.52 74.8204 219.439 73.2439 219.439 73.2439" fill="#0F006A" fill-opacity="0.7"/>
<path opacity="0.5" d="M222.565 68.0066C222.565 68.0066 230.641 61.4511 232.988 65.3791C235.335 69.307 229.862 74.8204 225.691 74.8204C221.52 74.8204 219.439 73.2439 219.439 73.2439" fill="white"/>
</g>
<path d="M222.565 68.0066C222.565 68.0066 230.641 61.4511 232.988 65.3791C235.335 69.307 229.862 74.8204 225.691 74.8204C221.52 74.8204 219.439 73.2439 219.439 73.2439" stroke="#0F006A" stroke-opacity="0.7" stroke-width="1.14333" stroke-linecap="round" stroke-linejoin="round"/>
<path d="M31.2419 303.87H316.947" stroke="#0F006A" stroke-opacity="0.7" stroke-width="1.14333" stroke-linecap="round" stroke-linejoin="round"/>
<path d="M172.284 216.752H86.0398V311.503C86.0398 317.204 105.425 321.826 129.343 321.826C153.262 321.826 172.647 317.204 172.647 311.503L172.284 216.752Z" fill="white"/>
<mask id="mask9_6_1229" style="mask-type:luminance" maskUnits="userSpaceOnUse" x="86" y="216" width="87" height="106">
<path d="M172.284 216.752H86.0398V311.503C86.0398 317.204 105.425 321.826 129.343 321.826C153.262 321.826 172.647 317.204 172.647 311.503L172.284 216.752Z" fill="white"/>
</mask>
<g mask="url(#mask9_6_1229)">
<path opacity="0.42" d="M172.284 216.752H86.0398V311.503C86.0398 317.204 105.425 321.826 129.343 321.826C153.262 321.826 172.647 317.204 172.647 311.503L172.284 216.752Z" fill="black"/>
<path d="M106.549 216.752V320.277C113.14 321.21 119.783 321.719 126.439 321.8V216.752H106.549Z" fill="#0F006A" fill-opacity="0.7"/>
<path d="M133.904 216.752V321.764C136.02 321.764 138.101 321.63 140.103 321.506V216.752H133.904Z" fill="#0F006A" fill-opacity="0.7"/>
<path d="M143.229 216.752V321.283C145.384 321.105 147.45 320.891 149.428 320.642V216.752H143.229Z" fill="white"/>
</g>
<path d="M172.284 216.752H86.0398V311.503C86.0398 317.204 105.425 321.826 129.343 321.826C153.262 321.826 172.647 317.204 172.647 311.503L172.284 216.752Z" stroke="#0F006A" stroke-opacity="0.7" stroke-width="1.14333" stroke-linecap="round" stroke-linejoin="round"/>
<path d="M129.343 201.619C118.203 201.619 106.833 202.349 95.958 204.95C89.8831 206.411 78.8137 209.493 81.3907 218.31C82.5419 222.247 87.0671 223.761 90.5207 225.008C94.7925 226.39 99.1832 227.368 103.636 227.93C112.136 229.21 120.722 229.827 129.317 229.774C140.466 229.774 151.845 229.043 162.72 226.433C167.147 225.382 172.629 224.242 175.728 220.617C176.408 219.854 176.926 218.959 177.251 217.987C177.576 217.016 177.7 215.988 177.617 214.966C177.535 213.944 177.246 212.951 176.769 212.045C176.292 211.139 175.637 210.34 174.843 209.697C171.177 206.901 166.085 205.725 161.692 204.736C154.677 203.232 147.551 202.303 140.386 201.957C136.72 201.732 133.039 201.619 129.343 201.619Z" fill="white"/>
<mask id="mask10_6_1229" style="mask-type:luminance" maskUnits="userSpaceOnUse" x="81" y="201" width="97" height="29">
<path d="M129.343 201.619C118.203 201.619 106.833 202.349 95.958 204.95C89.8831 206.411 78.8137 209.493 81.3907 218.31C82.5419 222.247 87.0671 223.761 90.5207 225.008C94.7925 226.39 99.1832 227.368 103.636 227.93C112.136 229.21 120.722 229.827 129.317 229.774C140.466 229.774 151.845 229.043 162.72 226.433C167.147 225.382 172.629 224.242 175.728 220.617C176.408 219.854 176.926 218.959 177.251 217.987C177.576 217.016 177.7 215.988 177.617 214.966C177.535 213.944 177.246 212.951 176.769 212.045C176.292 211.139 175.637 210.34 174.843 209.697C171.177 206.901 166.085 205.725 161.692 204.736C154.677 203.232 147.551 202.303 140.386 201.957C136.72 201.732 133.039 201.619 129.343 201.619Z" fill="white"/>
</mask>
<g mask="url(#mask10_6_1229)">
<path opacity="0.42" d="M129.343 201.619C118.203 201.619 106.833 202.349 95.958 204.95C89.8831 206.411 78.8137 209.493 81.3907 218.31C82.5419 222.247 87.0671 223.761 90.5207 225.008C94.7925 226.39 99.1832 227.368 103.636 227.93C112.136 229.21 120.722 229.827 129.317 229.774C140.466 229.774 151.845 229.043 162.72 226.433C167.147 225.382 172.629 224.242 175.728 220.617C176.408 219.854 176.926 218.959 177.251 217.987C177.576 217.016 177.7 215.988 177.617 214.966C177.535 213.944 177.246 212.951 176.769 212.045C176.292 211.139 175.637 210.34 174.843 209.697C171.177 206.901 166.085 205.725 161.692 204.736C154.677 203.232 147.551 202.303 140.386 201.957C136.72 201.732 133.039 201.619 129.343 201.619Z" fill="black"/>
</g>
<path d="M129.343 201.619C118.203 201.619 106.833 202.349 95.958 204.95C89.8831 206.411 78.8137 209.493 81.3907 218.31C82.5419 222.247 87.0671 223.761 90.5207 225.008C94.7925 226.39 99.1832 227.368 103.636 227.93C112.136 229.21 120.722 229.827 129.317 229.774C140.466 229.774 151.845 229.043 162.72 226.433C167.147 225.382 172.629 224.242 175.728 220.617C176.408 219.854 176.926 218.959 177.251 217.987C177.576 217.016 177.7 215.988 177.617 214.966C177.535 213.944 177.246 212.951 176.769 212.045C176.292 211.139 175.637 210.34 174.843 209.697C171.177 206.901 166.085 205.725 161.692 204.736C154.677 203.232 147.551 202.303 140.386 201.957C136.72 201.732 133.039 201.619 129.343 201.619Z" stroke="#0F006A" stroke-opacity="0.7" stroke-width="1.14333" stroke-linecap="round" stroke-linejoin="round"/>
<path d="M129.343 222.693C153.235 222.693 172.602 218.549 172.602 213.438C172.602 208.327 153.235 204.184 129.343 204.184C105.452 204.184 86.0841 208.327 86.0841 213.438C86.0841 218.549 105.452 222.693 129.343 222.693Z" fill="white"/>
<mask id="mask11_6_1229" style="mask-type:luminance" maskUnits="userSpaceOnUse" x="86" y="204" width="87" height="19">
<path d="M129.343 222.693C153.235 222.693 172.602 218.549 172.602 213.438C172.602 208.327 153.235 204.184 129.343 204.184C105.452 204.184 86.0841 208.327 86.0841 213.438C86.0841 218.549 105.452 222.693 129.343 222.693Z" fill="white"/>
</mask>
<g mask="url(#mask11_6_1229)">
<path opacity="0.65" d="M129.343 222.693C153.235 222.693 172.602 218.549 172.602 213.438C172.602 208.327 153.235 204.184 129.343 204.184C105.452 204.184 86.0841 208.327 86.0841 213.438C86.0841 218.549 105.452 222.693 129.343 222.693Z" fill="black"/>
</g>
<path d="M129.343 222.693C153.235 222.693 172.602 218.549 172.602 213.438C172.602 208.327 153.235 204.184 129.343 204.184C105.452 204.184 86.0841 208.327 86.0841 213.438C86.0841 218.549 105.452 222.693 129.343 222.693Z" stroke="#0F006A" stroke-opacity="0.7" stroke-width="1.14333" stroke-linecap="round" stroke-linejoin="round"/>
<path d="M87.0936 242.528C87.0936 242.528 80.7531 231.724 82.6659 228.277C84.5787 224.83 93.1597 228.037 95.6038 231.225C98.0479 234.414 100.244 243.259 99.022 243.499C97.7999 243.74 95.8517 243.989 95.3558 242.279C94.8599 240.569 92.4335 233.194 90.9281 232.205C89.4226 231.217 86.0487 229.266 86.0487 231.475C86.0487 233.684 89.7149 241.272 89.219 242.519C88.7231 243.766 88.5636 243.998 87.0936 242.528Z" fill="#0F006A" fill-opacity="0.7"/>
<path d="M254.401 237.425H185.124V313.534C185.124 318.112 200.701 321.826 219.909 321.826C239.116 321.826 254.693 318.112 254.693 313.534L254.401 237.425Z" fill="white"/>
<mask id="mask12_6_1229" style="mask-type:luminance" maskUnits="userSpaceOnUse" x="185" y="237" width="70" height="85">
<path d="M254.401 237.425H185.124V313.534C185.124 318.112 200.701 321.826 219.909 321.826C239.116 321.826 254.693 318.112 254.693 313.534L254.401 237.425Z" fill="white"/>
</mask>
<g mask="url(#mask12_6_1229)">
<path opacity="0.42" d="M254.401 237.425H185.124V313.534C185.124 318.112 200.701 321.826 219.909 321.826C239.116 321.826 254.693 318.112 254.693 313.534L254.401 237.425Z" fill="black"/>
</g>
<path d="M254.401 237.425H185.124V313.534C185.124 318.112 200.701 321.826 219.909 321.826C239.116 321.826 254.693 318.112 254.693 313.534L254.401 237.425Z" stroke="#0F006A" stroke-opacity="0.7" stroke-width="1.14333" stroke-linecap="round" stroke-linejoin="round"/>
<path d="M201.604 237.425V320.579C206.886 321.328 212.21 321.739 217.544 321.808V237.425H201.604Z" fill="#0F006A" fill-opacity="0.7"/>
<path d="M223.566 237.425V321.782C225.278 321.734 226.943 321.663 228.56 321.568V237.425H223.566Z" fill="#0F006A" fill-opacity="0.7"/>
<path d="M231.058 237.425V321.39C232.785 321.247 234.458 321.078 236.052 320.882V237.425H231.058Z" fill="white"/>
<path d="M219.909 225.276C210.956 225.276 201.826 225.863 193.094 227.948C188.206 229.114 179.324 231.591 181.396 238.636C182.282 241.798 185.948 243.009 188.728 243.98C192.154 245.123 195.68 245.94 199.258 246.42C206.093 247.447 212.997 247.941 219.909 247.899C228.862 247.899 238 247.311 246.741 245.227C250.283 244.381 254.711 243.446 257.19 240.551C257.735 239.936 258.15 239.217 258.41 238.436C258.67 237.656 258.77 236.83 258.702 236.009C258.635 235.189 258.403 234.391 258.02 233.663C257.637 232.936 257.11 232.294 256.473 231.778C253.533 229.542 249.433 228.598 245.917 227.796C240.28 226.589 234.556 225.841 228.8 225.561C225.842 225.37 222.878 225.276 219.909 225.276Z" fill="white"/>
<mask id="mask13_6_1229" style="mask-type:luminance" maskUnits="userSpaceOnUse" x="181" y="225" width="78" height="23">
<path d="M219.909 225.276C210.956 225.276 201.826 225.863 193.094 227.948C188.206 229.114 179.324 231.591 181.396 238.636C182.282 241.798 185.948 243.009 188.728 243.98C192.154 245.123 195.68 245.94 199.258 246.42C206.093 247.447 212.997 247.941 219.909 247.899C228.862 247.899 238 247.311 246.741 245.227C250.283 244.381 254.711 243.446 257.19 240.551C257.735 239.936 258.15 239.217 258.41 238.436C258.67 237.656 258.77 236.83 258.702 236.009C258.635 235.189 258.403 234.391 258.02 233.663C257.637 232.936 257.11 232.294 256.473 231.778C253.533 229.542 249.433 228.598 245.917 227.796C240.28 226.589 234.556 225.841 228.8 225.561C225.842 225.37 222.878 225.276 219.909 225.276Z" fill="white"/>
</mask>
<g mask="url(#mask13_6_1229)">
<path opacity="0.42" d="M219.909 225.276C210.956 225.276 201.826 225.863 193.094 227.948C188.206 229.114 179.324 231.591 181.396 238.636C182.282 241.798 185.948 243.009 188.728 243.98C192.154 245.123 195.68 245.94 199.258 246.42C206.093 247.447 212.997 247.941 219.909 247.899C228.862 247.899 238 247.311 246.741 245.227C250.283 244.381 254.711 243.446 257.19 240.551C257.735 239.936 258.15 239.217 258.41 238.436C258.67 237.656 258.77 236.83 258.702 236.009C258.635 235.189 258.403 234.391 258.02 233.663C257.637 232.936 257.11 232.294 256.473 231.778C253.533 229.542 249.433 228.598 245.917 227.796C240.28 226.589 234.556 225.841 228.8 225.561C225.842 225.37 222.878 225.276 219.909 225.276Z" fill="black"/>
</g>
<path d="M219.909 225.276C210.956 225.276 201.826 225.863 193.094 227.948C188.206 229.114 179.324 231.591 181.396 238.636C182.282 241.798 185.948 243.009 188.728 243.98C192.154 245.123 195.68 245.94 199.258 246.42C206.093 247.447 212.997 247.941 219.909 247.899C228.862 247.899 238 247.311 246.741 245.227C250.283 244.381 254.711 243.446 257.19 240.551C257.735 239.936 258.15 239.217 258.41 238.436C258.67 237.656 258.77 236.83 258.702 236.009C258.635 235.189 258.403 234.391 258.02 233.663C257.637 232.936 257.11 232.294 256.473 231.778C253.533 229.542 249.433 228.598 245.917 227.796C240.28 226.589 234.556 225.841 228.8 225.561C225.842 225.37 222.878 225.276 219.909 225.276Z" stroke="#0F006A" stroke-opacity="0.7" stroke-width="1.14333" stroke-linecap="round" stroke-linejoin="round"/>
<path d="M219.909 242.208C239.1 242.208 254.658 238.878 254.658 234.77C254.658 230.663 239.1 227.333 219.909 227.333C200.717 227.333 185.16 230.663 185.16 234.77C185.16 238.878 200.717 242.208 219.909 242.208Z" fill="white"/>
<mask id="mask14_6_1229" style="mask-type:luminance" maskUnits="userSpaceOnUse" x="185" y="227" width="70" height="16">
<path d="M219.909 242.208C239.1 242.208 254.658 238.878 254.658 234.77C254.658 230.663 239.1 227.333 219.909 227.333C200.717 227.333 185.16 230.663 185.16 234.77C185.16 238.878 200.717 242.208 219.909 242.208Z" fill="white"/>
</mask>
<g mask="url(#mask14_6_1229)">
<path opacity="0.65" d="M219.909 242.208C239.1 242.208 254.658 238.878 254.658 234.77C254.658 230.663 239.1 227.333 219.909 227.333C200.717 227.333 185.16 230.663 185.16 234.77C185.16 238.878 200.717 242.208 219.909 242.208Z" fill="black"/>
</g>
<path d="M219.909 242.208C239.1 242.208 254.658 238.878 254.658 234.77C254.658 230.663 239.1 227.333 219.909 227.333C200.717 227.333 185.16 230.663 185.16 234.77C185.16 238.878 200.717 242.208 219.909 242.208Z" stroke="#0F006A" stroke-opacity="0.7" stroke-width="1.14333" stroke-linecap="round" stroke-linejoin="round"/>
<path d="M185.974 258.133C185.974 258.133 180.874 249.458 182.432 246.697C183.991 243.935 190.863 246.501 192.828 249.057C194.794 251.613 196.548 258.721 195.574 258.917C194.6 259.113 193.023 259.318 192.634 257.937C192.244 256.557 190.278 250.642 189.091 249.85C187.905 249.057 185.168 247.48 185.168 249.262C185.168 251.043 188.117 257.144 187.719 258.169C187.32 259.193 187.152 259.318 185.974 258.133Z" fill="#0F006A" fill-opacity="0.7"/>
<path d="M106.771 173.304C106.771 178.826 111.739 178.826 111.739 184.339C111.739 189.853 106.771 189.853 106.771 195.375C106.771 200.897 111.739 200.888 111.739 206.411C111.739 211.933 106.771 211.933 106.771 217.446" stroke="#0F006A" stroke-opacity="0.7" stroke-width="1.14333" stroke-linecap="round" stroke-linejoin="round"/>
<path d="M111.739 162.277C111.739 165.751 109.764 167.033 108.303 168.895" stroke="#0F006A" stroke-opacity="0.7" stroke-width="1.14333" stroke-linecap="round" stroke-linejoin="round"/>
<path d="M129.883 172.885C129.883 177.339 124.916 177.339 124.916 181.792C124.916 186.246 129.883 186.246 129.883 190.699C129.883 195.152 124.916 195.152 124.916 199.606C124.916 204.059 129.883 204.059 129.883 208.513C129.883 212.966 124.916 212.966 124.916 217.42" stroke="#0F006A" stroke-opacity="0.7" stroke-width="1.14333" stroke-linecap="round" stroke-linejoin="round"/>
<path d="M148.028 162.277C148.028 167.79 143.06 167.79 143.06 173.304C143.06 178.817 148.028 178.826 148.028 184.339C148.028 189.853 143.06 189.853 143.06 195.375C143.06 200.897 148.028 200.888 148.028 206.411C148.028 211.933 143.06 211.933 143.06 217.446" stroke="#0F006A" stroke-opacity="0.7" stroke-width="1.14333" stroke-linecap="round" stroke-linejoin="round"/>
<path d="M206.563 207.845C206.968 208.605 207.17 209.458 207.148 210.321C207.148 214.471 203.402 214.471 203.402 218.631C203.402 222.79 207.148 222.791 207.148 226.95C207.148 231.11 203.402 231.118 203.402 235.278" stroke="#0F006A" stroke-opacity="0.7" stroke-width="1.14333" stroke-linecap="round" stroke-linejoin="round"/>
<path d="M220.83 201.681C220.83 205.039 217.084 205.039 217.084 208.397C217.084 211.755 220.83 211.755 220.83 215.113C220.83 218.471 217.084 218.471 217.084 221.837C217.084 225.204 220.83 225.195 220.83 228.553C220.83 231.911 217.084 231.911 217.084 235.278" stroke="#0F006A" stroke-opacity="0.7" stroke-width="1.14333" stroke-linecap="round" stroke-linejoin="round"/>
<path d="M232.785 214.356C231.81 215.442 230.792 216.476 230.792 218.64C230.792 222.799 234.538 222.799 234.538 226.959C234.538 231.118 230.792 231.127 230.792 235.287" stroke="#0F006A" stroke-opacity="0.7" stroke-width="1.14333" stroke-linecap="round" stroke-linejoin="round"/>
</svg>
