<svg width="326" height="284" viewBox="0 0 326 284" fill="none" xmlns="http://www.w3.org/2000/svg">
<path d="M136.556 21.4765C141.442 21.4765 145.403 17.4736 145.403 12.5359C145.403 7.59808 141.442 3.59521 136.556 3.59521C131.67 3.59521 127.71 7.59808 127.71 12.5359C127.71 17.4736 131.67 21.4765 136.556 21.4765Z" fill="#263238" stroke="#263238" stroke-linecap="round" stroke-linejoin="round"/>
<path d="M161.112 36.9973C161.112 36.9973 165.29 36.8198 166.334 44.225C167.379 51.6303 171.745 70.9425 172.11 73.6477C172.476 76.3529 170.846 79.6116 166.888 80.8754C162.929 82.1392 160.746 78.3478 160.381 76.5409C160.015 74.7339 156.527 52.7374 156.527 52.7374L161.112 36.9973Z" fill="#263238" stroke="#263238" stroke-linecap="round" stroke-linejoin="round"/>
<path d="M120.451 55.0039C120.451 55.0039 102.152 62.7434 102.152 65.5531C102.152 68.3627 113.421 95.8426 113.421 95.8426L161.979 83.1732L156.537 52.7583C156.537 52.7583 149.309 43.7446 120.451 55.0039Z" fill="#0F006A" fill-opacity="0.7" stroke="#263238" stroke-linecap="round" stroke-linejoin="round"/>
<path d="M137.141 38.3969C137.141 38.3969 131.919 41.6452 127.741 43.9848C123.563 46.3244 117.296 49.5831 117.296 56.0902C117.296 62.5972 121.996 88.406 121.996 91.1112C121.91 92.3185 121.97 93.5319 122.174 94.725C122.174 94.1819 153.947 83.7059 153.947 83.7059C154.924 79.5516 156.131 75.4545 157.561 71.4334C159.19 67.4644 157.561 64.0281 159.368 57.5315C161.174 51.0349 164.59 46.7004 163.159 41.8645C161.728 37.0286 161.352 37.1749 156.119 36.9868C150.886 36.7988 142.196 36.7675 137.141 38.3969Z" fill="#263238" stroke="#263238" stroke-linecap="round" stroke-linejoin="round"/>
<path d="M134.76 35.5559C134.76 35.5559 132.41 36.8197 131.501 42.5956C130.912 47.2063 130.612 51.8493 130.603 56.4975C130.603 56.4975 140.348 51.0871 141.8 50.8991C143.251 50.7111 153.717 55.077 153.717 55.077C152.868 50.2964 151.659 45.5864 150.103 40.9871C147.941 35.1903 136.922 33.0283 134.76 35.5559Z" fill="white" stroke="#263238" stroke-linecap="round" stroke-linejoin="round"/>
<path d="M132.953 34.1146L133.131 34.7308C133.83 37.1748 136.452 46.2199 138.008 50.7216C139.815 55.9439 142.52 58.1269 142.52 58.1269L145.225 47.3271C145.225 47.3271 134.572 36.9973 132.953 34.1146Z" fill="white" stroke="#263238" stroke-linecap="round" stroke-linejoin="round"/>
<path d="M142.499 11.0005C142.499 11.0005 133.653 9.55911 130.582 21.1109C127.511 32.6627 137.444 42.5956 140.327 46.3871C143.21 50.1785 147.388 51.39 149.727 47.6509C153.341 41.8749 154.427 38.9818 154.949 31.3989C155.472 23.8161 154.584 18.7609 151.158 14.7919C150.05 13.6018 148.711 12.6514 147.221 11.9993C145.732 11.3472 144.125 11.0073 142.499 11.0005Z" fill="white" stroke="#263238" stroke-linecap="round" stroke-linejoin="round"/>
<path d="M151.189 14.7919C150.081 13.6006 148.739 12.6494 147.248 11.9972C145.757 11.3451 144.148 11.0059 142.52 11.0005C142.52 11.0005 133.674 9.55911 130.603 21.1109C129.762 24.3873 129.845 27.8327 130.843 31.0647C131.167 30.2396 131.658 29.592 132.41 29.592C134.572 29.592 134.76 32.6627 135.481 32.4852C136.201 32.3076 139.084 29.78 138.551 27.43C138.019 25.0799 138.729 24.0041 142.52 24.0041C146.312 24.0041 147.21 25.623 148.474 25.2679C149.738 24.9128 150.646 22.3747 151.91 22.3747C152.475 22.3945 153.03 22.5267 153.542 22.7634C154.055 23.0001 154.516 23.3367 154.897 23.7534C154.619 20.4544 153.323 17.3232 151.189 14.7919Z" fill="#263238" stroke="#263238" stroke-linecap="round" stroke-linejoin="round"/>
<path d="M135.481 33.5714C135.481 33.5714 134.029 29.9576 132.41 29.592C130.791 29.2264 129.882 30.3231 130.78 33.3834C131.679 36.4437 132.953 37.718 133.674 37.718C134.394 37.718 134.718 36.6735 134.718 36.6735" fill="white"/>
<path d="M135.481 33.5714C135.481 33.5714 134.029 29.9576 132.41 29.592C130.791 29.2264 129.882 30.3231 130.78 33.3834C131.679 36.4437 132.953 37.718 133.674 37.718C134.394 37.718 134.718 36.6735 134.718 36.6735" stroke="#263238" stroke-linecap="round" stroke-linejoin="round"/>
<path d="M122.299 70.5769C122.299 70.5769 123.198 76.3633 127.177 78.9326C131.156 81.502 136.577 80.1965 136.577 80.1965" stroke="#263238" stroke-linecap="round" stroke-linejoin="round"/>
<path d="M142.499 58.1269C142.499 58.1269 145.027 67.6942 144.484 71.8408" stroke="#263238" stroke-linecap="round" stroke-linejoin="round"/>
<path d="M88.5631 55.6828C88.5631 55.6828 90.7565 56.5915 92.4067 62.2629C94.057 67.9344 98.4333 78.3477 99.53 82.3689C100.627 86.3902 100.261 91.508 95.5088 92.8136C90.7565 94.1192 85.6386 81.1156 84.9074 80.0189C84.1763 78.9222 82.3485 68.6864 83.2676 63.203C84.1867 57.7195 86.5577 54.9621 88.5631 55.6828Z" fill="white" stroke="#263238" stroke-linecap="round" stroke-linejoin="round"/>
<path d="M62.5349 74.6713C62.5349 74.6713 33.9792 102.527 33.9792 106.705C33.9792 110.883 50.7847 145.434 55.4848 144.651C60.1849 143.867 81.3354 121.328 81.3354 121.328L62.5349 74.6713Z" fill="#0F006A" fill-opacity="0.7" stroke="#263238" stroke-linecap="round" stroke-linejoin="round"/>
<path d="M63.3392 60.08C57.9133 64.8804 52.7859 70.0078 47.9855 75.4337C41.5829 82.9225 42.1365 95.5397 44.1419 104.125C46.1473 112.711 49.8134 137.026 54.3777 137.945C58.942 138.864 62.6081 129.172 70.6505 122.278C78.6929 115.385 85.0955 109.483 85.6386 104.909C86.1817 100.334 85.461 85.7217 85.8266 84.625C86.6961 79.2419 87.1847 73.8041 87.2889 68.3522C87.2889 63.0568 83.2677 57.2077 79.2465 55.923C75.2253 54.6383 64.979 58.8162 63.3392 60.08Z" fill="white" stroke="#263238" stroke-linecap="round" stroke-linejoin="round"/>
<path d="M100.366 232.02C100.366 232.02 94.4539 244.178 85.9937 251.917C77.5335 259.657 64.2583 269.235 64.2583 269.235C64.2583 269.235 78.2542 273.663 81.21 274.029C84.1659 274.394 83.4139 275.867 80.1029 277.35C76.7919 278.833 72.729 279.93 63.5168 279.93C54.3046 279.93 48.4137 279.93 48.0377 277.716C47.6617 275.502 53.5734 269.976 57.9915 265.558C62.4096 261.14 79.3613 233.493 80.834 232.02C82.3067 230.548 92.6261 225.754 100.366 232.02Z" fill="white" stroke="#263238" stroke-linecap="round" stroke-linejoin="round"/>
<path d="M81.21 274.029C78.7764 273.726 68.8644 270.676 65.4386 269.611L62.7856 275.501C60.7831 275.825 58.7328 275.678 56.7967 275.073C54.8607 274.467 53.0921 273.42 51.6307 272.013C49.4269 274.405 47.8393 276.536 48.0273 277.716C48.4033 279.93 54.2941 279.93 63.5063 279.93C72.7185 279.93 76.771 278.823 80.0924 277.35C83.4138 275.878 84.1554 274.394 81.21 274.029Z" fill="#263238" stroke="#263238" stroke-linecap="round" stroke-linejoin="round"/>
<path d="M206.087 232.02C206.087 232.02 211.988 244.178 220.458 251.917C228.929 259.657 242.204 269.235 242.204 269.235C242.204 269.235 228.198 273.663 225.253 274.029C222.307 274.394 223.038 275.867 226.36 277.35C229.681 278.833 233.671 279.93 242.935 279.93C252.2 279.93 258.049 279.93 258.414 277.716C258.78 275.502 252.889 269.976 248.461 265.558C244.032 261.14 227.091 233.493 225.618 232.02C224.145 230.548 213.826 225.754 206.087 232.02Z" fill="white" stroke="#263238" stroke-linecap="round" stroke-linejoin="round"/>
<path d="M225.253 274.029C227.676 273.726 237.598 270.676 241.024 269.611L243.677 275.501C245.678 275.823 247.726 275.675 249.66 275.069C251.594 274.464 253.361 273.418 254.821 272.013C257.015 274.405 258.613 276.536 258.414 277.716C258.049 279.93 252.148 279.93 242.935 279.93C233.723 279.93 229.671 278.823 226.36 277.35C223.049 275.878 222.307 274.394 225.253 274.029Z" fill="#263238" stroke="#263238" stroke-linecap="round" stroke-linejoin="round"/>
<path d="M15.2415 237.18C15.2415 237.18 20.4011 246.758 20.0356 250.079C19.7327 252.784 13.2883 273.444 10.9383 280.922C10.8459 281.217 10.8279 281.531 10.8856 281.835C10.9434 282.139 11.0752 282.423 11.2694 282.664C11.4636 282.905 11.7142 283.094 11.999 283.215C12.2837 283.335 12.5938 283.384 12.9019 283.356C13.2689 283.323 13.6181 283.182 13.906 282.952C14.1938 282.721 14.4076 282.412 14.5208 282.061L24.8297 250.445C24.8297 250.445 26.6679 248.23 32.5692 247.134C37.0813 246.277 59.5582 245.222 69.8149 244.773C71.7075 244.665 73.5681 245.296 75.0042 246.534C76.4403 247.771 77.3397 249.518 77.5126 251.406C77.5126 251.458 77.5126 251.5 77.5126 251.552C77.8364 255.803 84.8239 277.789 86.4115 282.656C86.4978 282.923 86.6771 283.15 86.9168 283.296C87.1564 283.441 87.4404 283.496 87.7171 283.45C87.873 283.424 88.0221 283.366 88.1552 283.281C88.2883 283.196 88.4028 283.084 88.4916 282.953C88.5804 282.823 88.6418 282.675 88.6721 282.52C88.7023 282.365 88.7008 282.205 88.6675 282.05C87.4142 276.348 82.0352 251.761 80.0925 239.394C80.0925 239.394 41.0294 241.233 32.1827 239.018C26.8654 237.69 21.7754 235.578 17.0797 232.751C17.0797 232.751 14.8759 232.762 15.2415 237.18Z" fill="#263238" stroke="#263238" stroke-linecap="round" stroke-linejoin="round"/>
<path d="M11.9409 172.329C11.9409 172.329 -1.33426 213.961 0.869572 221.335C3.0734 228.709 13.7687 239.018 17.8213 239.018C21.8738 239.018 25.1952 198.493 25.1952 194.806C25.1952 191.119 18.2077 177.886 15.983 172.329C13.7583 166.772 11.9409 172.329 11.9409 172.329Z" fill="#0F006A" fill-opacity="0.7" stroke="#263238" stroke-linecap="round" stroke-linejoin="round"/>
<path d="M84.4688 234.6C84.333 238.778 83.6854 241.974 81.9412 241.974C78.6302 241.974 42.5125 245.651 34.0419 245.285C25.5713 244.919 19.3044 240.554 19.3044 234.287C19.3044 228.02 19.67 200.383 25.9368 196.686C32.2036 192.989 65.3655 192.633 73.105 192.633C82.6305 192.633 83.0379 211.037 83.4452 217.272C83.5601 219.069 84.6777 228.02 84.4688 234.6Z" fill="#0F006A" fill-opacity="0.7" stroke="#263238" stroke-linecap="round" stroke-linejoin="round"/>
<path d="M74.9432 234.966C74.9432 234.966 98.5273 235.707 100.366 232.02C102.204 228.333 100.366 220.594 95.5819 219.121C90.7982 217.648 70.8907 218.756 70.8907 218.756L74.9432 234.966Z" fill="white" stroke="#263238" stroke-linecap="round" stroke-linejoin="round"/>
<path d="M17.8213 200.331C16.4187 205.256 15.7984 210.37 15.983 215.486C16.3486 223.602 18.5629 231.707 29.5611 238.339C40.5593 244.972 76.7293 237.232 76.7293 237.232L74.1494 188.957C74.1494 188.957 50.1998 186.012 36.935 188.591C23.6703 191.171 18.2077 198.859 17.8213 200.331Z" fill="#263238" stroke="#263238" stroke-linecap="round" stroke-linejoin="round"/>
<path d="M190.545 30.4798C187.893 33.273 185.813 36.5589 184.424 40.1516C182.45 45.6873 175.933 62.2734 176.131 65.4277C176.33 68.582 179.087 72.5406 181.855 70.3681C184.623 68.1956 191.328 56.5497 191.725 55.9544C192.122 55.3591 192.519 47.066 192.519 41.9272C192.519 36.7884 192.864 30.2814 190.545 30.4798Z" fill="white" stroke="#263238" stroke-linecap="round" stroke-linejoin="round"/>
<path d="M196.916 48.2149C199.078 47.7971 248.45 58.6596 248.45 64.2266C248.45 69.7936 237.306 100.438 237.306 100.438L189.96 87.9047C189.96 87.9047 190.91 49.416 196.916 48.2149Z" fill="#0F006A" fill-opacity="0.7" stroke="#263238" stroke-linecap="round" stroke-linejoin="round"/>
<path d="M213.596 24.1608C213.596 24.1608 202.932 22.9701 195.423 26.7302C187.913 30.4902 187.923 36.7988 188.32 42.9194C188.717 49.04 190.754 82.0556 191.349 84.4266C191.945 86.7975 205.502 86.1708 213.398 87.748C221.294 89.3251 226.83 82.8076 228.02 80.2382C229.211 77.6688 243.029 52.5912 243.029 47.2644C243.029 41.9376 237.306 31.8585 229.201 27.1166C224.518 24.3019 218.984 23.2535 213.596 24.1608Z" fill="white" stroke="#263238" stroke-linecap="round" stroke-linejoin="round"/>
<path d="M206.087 44.4966L208.259 49.2385L199.768 78.8596L201.742 84.5833L207.476 80.2383L210.63 49.8338L214.975 45.0919L212.803 39.7547L206.087 44.4966Z" fill="#263238" stroke="#263238" stroke-linecap="round" stroke-linejoin="round"/>
<path d="M206.682 32.2554C205.514 34.4791 204.522 36.791 203.716 39.1698C203.184 41.7679 202.921 44.4139 202.932 47.0659C202.932 47.0659 209.251 44.0996 211.027 44.0996C212.803 44.0996 216.354 52.2047 216.354 52.2047C216.354 52.2047 221.691 44.2981 222.485 38.6266C223.279 32.9552 217.148 28.7564 212.803 28.7564C211.564 28.7447 210.344 29.0625 209.269 29.6774C208.193 30.2922 207.3 31.182 206.682 32.2554Z" fill="white" stroke="#263238" stroke-linecap="round" stroke-linejoin="round"/>
<path d="M229.19 26.5317C229.19 26.5317 231.175 23.5654 231.561 26.3333C231.948 29.1011 229.587 31.2632 228.208 32.0569C227.86 32.2972 227.446 32.4259 227.023 32.4259C226.6 32.4259 226.186 32.2972 225.838 32.0569" fill="white"/>
<path d="M229.19 26.5317C229.19 26.5317 231.175 23.5654 231.561 26.3333C231.948 29.1011 229.587 31.2632 228.208 32.0569C227.86 32.2972 227.446 32.4259 227.023 32.4259C226.6 32.4259 226.186 32.2972 225.838 32.0569" stroke="#263238" stroke-linecap="round" stroke-linejoin="round"/>
<path d="M209.053 15.0739C209.053 15.0739 207.079 13.4968 205.92 16.6511C204.76 19.8054 206.713 23.7639 206.713 23.7639L208.687 19.586" fill="white"/>
<path d="M209.053 15.0739C209.053 15.0739 207.079 13.4968 205.92 16.6511C204.76 19.8054 206.713 23.7639 206.713 23.7639L208.687 19.586" stroke="#263238" stroke-linecap="round" stroke-linejoin="round"/>
<path d="M209.053 41.5407C208.964 41.8432 208.947 42.1626 209.005 42.4726C209.063 42.7826 209.194 43.0745 209.387 43.3242C209.579 43.5739 209.828 43.7744 210.113 43.9092C210.399 44.044 210.712 44.1093 211.027 44.0997C213.596 44.2981 218.923 38.7729 219.32 37.5822C219.717 36.3915 209.053 41.5407 209.053 41.5407Z" fill="white" stroke="#263238" stroke-linecap="round" stroke-linejoin="round"/>
<path d="M218.338 3.03123C218.338 3.03123 211.424 6.16463 209.847 11.1259C208.27 16.0871 205.669 26.1349 205.669 29.9263C205.669 33.7177 206.849 41.4154 209.418 42.5643C211.988 43.7133 220.479 38.2194 222.84 36.6422C225.2 35.0651 227.979 28.9445 230.945 25.3828C233.911 21.8212 236.272 15.3142 235.123 9.98739C233.974 4.6606 225.242 -1.71066 218.338 3.03123Z" fill="white" stroke="#263238" stroke-linecap="round" stroke-linejoin="round"/>
<path d="M235.123 9.94557C233.932 4.60834 225.242 -1.71069 218.338 3.03119C218.338 3.03119 211.424 6.16459 209.847 11.1258C209.095 13.4759 208.123 16.9748 207.309 20.4111C208.656 18.3222 210.891 14.7188 211.027 13.8937C211.225 12.703 211.225 12.5045 212.604 12.5045C213.983 12.5045 216.552 16.4526 220.114 17.2464C223.675 18.0402 228.407 17.4448 228.407 19.4189C228.407 21.3929 225.639 24.5577 227.415 25.5395C228.804 26.3124 227.561 28.9758 227.686 30.1351C228.67 28.4626 229.77 26.8607 230.976 25.341C233.932 21.7898 236.303 15.2724 235.123 9.94557Z" fill="#263238" stroke="#263238" stroke-linecap="round" stroke-linejoin="round"/>
<path d="M209.251 22.1867C209.251 22.1867 216.166 25.5395 219.518 26.7302C222.871 27.9209 226.234 29.2891 225.044 31.4616C223.853 33.6341 219.915 34.595 217.544 33.6341C215.173 32.6732 215.769 27.712 214.411 27.5135C213.053 27.3151 212.051 29.8845 209.481 29.8845C206.912 29.8845 204.144 25.9364 204.541 23.1685C204.938 20.4007 209.251 22.1867 209.251 22.1867Z" fill="white" stroke="#263238" stroke-linecap="round" stroke-linejoin="round"/>
<path d="M225.639 29.4876L230.182 24.9442" stroke="#263238" stroke-linecap="round" stroke-linejoin="round"/>
<path d="M205.7 21.9883L208.061 16.6511" stroke="#263238" stroke-linecap="round" stroke-linejoin="round"/>
<path d="M260.848 63.8715C260.848 63.8715 247.75 75.5277 244.356 78.9014C240.961 82.275 240.805 88.7611 244.032 90.2129C247.26 91.6647 257.454 85.6904 259.062 84.3953C260.671 83.1001 265.047 64.6757 260.848 63.8715Z" fill="#263238" stroke="#263238" stroke-linecap="round" stroke-linejoin="round"/>
<path d="M293.592 93.0121C293.592 93.0121 311.191 110.601 307.672 116.231C304.152 121.86 270.374 139.46 270.374 139.46L264.034 112.011L293.592 93.0121Z" fill="#0F006A" fill-opacity="0.7" stroke="#263238" stroke-linecap="round" stroke-linejoin="round"/>
<path d="M271.021 62.7434C271.021 62.7434 263.595 62.0958 260.848 63.8714C258.101 65.647 256.158 82.1392 255.626 91.999C255.093 101.859 253.85 109.755 254.498 111.708C255.145 113.661 271.951 134.822 274.343 137.736C276.734 140.65 296.329 110.904 299.076 104.919C301.823 98.9342 300.047 93.4299 296.485 85.2099C292.924 76.99 285.341 69.3653 280.818 65.1666C279.523 63.9679 277.945 63.1169 276.232 62.6932C274.519 62.2694 272.726 62.2867 271.021 62.7434Z" fill="#263238" stroke="#263238" stroke-linecap="round" stroke-linejoin="round"/>
<path d="M270.865 82.2959L270.75 82.9226C270.541 84.0819 270.092 86.7349 269.705 89.7325C269.214 93.7746 269.381 99.1327 270.677 99.1327C271.972 99.1327 288.934 86.8498 289.258 75.7053C289.581 64.5608 272.16 77.6167 270.865 82.2959Z" fill="white" stroke="#263238" stroke-linecap="round" stroke-linejoin="round"/>
<path d="M270.06 60.3203C270.06 60.3203 268.441 66.2946 268.441 67.266C268.563 68.4134 268.78 69.5487 269.089 70.6605C269.089 70.6605 266.342 75.0264 266.666 75.5068C267.049 75.9806 267.48 76.4145 267.95 76.802C267.95 76.802 267.637 82.9434 268.922 84.2386C270.206 85.5337 275.554 84.719 275.554 84.719C275.554 84.719 272.964 87.9569 275.878 88.1135C278.792 88.2702 286.542 81.8467 288.808 78.0971C291.075 74.3475 290.897 67.5898 288.808 64.1952C286.72 60.8007 274.259 56.1111 270.06 60.3203Z" fill="white" stroke="#263238" stroke-linecap="round" stroke-linejoin="round"/>
<path d="M284.119 48.6745C284.119 48.6745 271.669 50.2934 269.413 55.1397C267.157 59.9861 272.316 65.9709 276.035 66.7856C278.046 67.2592 280.11 67.4733 282.176 67.4227C282.176 67.4227 278.301 70.8172 280.724 71.6005C283.147 72.3839 284.275 71.9243 284.275 72.7286C284.275 73.5328 281.852 76.1231 283.952 76.2902C286.051 76.4573 286.699 72.7286 287.994 73.5433C289.289 74.3579 287.513 77.5749 288.161 77.7211C288.808 77.8674 294.95 71.4543 297.561 64.6235C300.172 57.7927 296.59 53.6357 294.01 51.3797C291.43 49.1236 287.19 47.8702 284.119 48.6745Z" fill="#263238" stroke="#263238" stroke-linecap="round" stroke-linejoin="round"/>
<path d="M284.119 76.9586C284.119 76.9586 286.385 71.7363 287.837 72.927C289.289 74.1177 288.808 77.7733 287.19 79.0684C285.571 80.3636 282.5 78.9013 282.5 78.9013" fill="white"/>
<path d="M284.119 76.9586C284.119 76.9586 286.385 71.7363 287.837 72.927C289.289 74.1177 288.808 77.7733 287.19 79.0684C285.571 80.3636 282.5 78.9013 282.5 78.9013" stroke="#263238" stroke-linecap="round" stroke-linejoin="round"/>
<path d="M269.736 91.1843L274.907 88.6044L274.102 96.3544" fill="white"/>
<path d="M269.736 91.1843L274.907 88.6044L274.102 96.3544" stroke="#263238" stroke-linecap="round" stroke-linejoin="round"/>
<path d="M310.868 228.459C310.868 228.459 301.572 246.758 301.937 250.079C302.24 252.784 308.685 273.444 311.045 280.922C311.135 281.218 311.151 281.532 311.092 281.835C311.033 282.139 310.9 282.423 310.705 282.664C310.51 282.904 310.259 283.093 309.974 283.213C309.689 283.334 309.379 283.383 309.071 283.356C308.704 283.323 308.355 283.182 308.067 282.952C307.779 282.721 307.565 282.412 307.452 282.061L297.154 250.445C297.154 250.445 295.305 248.23 289.414 247.134C284.892 246.277 262.425 245.222 252.158 244.773C250.267 244.668 248.409 245.3 246.975 246.538C245.542 247.775 244.644 249.52 244.471 251.406C244.466 251.454 244.466 251.503 244.471 251.552C244.137 255.803 237.16 277.789 235.561 282.656C235.475 282.923 235.296 283.15 235.056 283.296C234.817 283.441 234.533 283.496 234.256 283.45C234.1 283.424 233.951 283.366 233.818 283.281C233.685 283.196 233.57 283.084 233.481 282.953C233.392 282.823 233.331 282.675 233.301 282.52C233.271 282.365 233.272 282.205 233.305 282.05C234.559 276.348 239.938 251.761 241.891 239.394C241.891 239.394 280.944 241.233 289.79 239.018C298.637 236.804 309.04 224.03 309.04 224.03C309.04 224.03 311.233 224.03 310.868 228.459Z" fill="#263238" stroke="#263238" stroke-linecap="round" stroke-linejoin="round"/>
<path d="M317.103 167.785C317.103 167.785 327.276 210.285 324.529 217.471C321.782 224.657 310.377 234.182 306.335 233.869C302.293 233.556 301.948 192.905 302.219 189.228C302.491 185.552 310.45 172.841 313.061 167.441C315.672 162.041 317.103 167.785 317.103 167.785Z" fill="#0F006A" fill-opacity="0.7" stroke="#263238" stroke-linecap="round" stroke-linejoin="round"/>
<path d="M237.546 234.6C237.671 238.778 238.329 241.974 240.063 241.974C243.385 241.974 279.492 245.651 287.973 245.285C296.454 244.919 302.679 240.554 302.679 234.287C302.679 228.02 302.303 200.331 296.036 196.686C289.769 193.041 256.608 192.633 248.868 192.633C239.342 192.633 238.925 211.037 238.528 217.272C238.413 219.069 237.306 228.02 237.546 234.6Z" fill="#0F006A" fill-opacity="0.7" stroke="#263238" stroke-linecap="round" stroke-linejoin="round"/>
<path d="M300.047 200.321C300.047 200.321 296.997 207.768 296.997 213.68C296.997 219.591 294.135 231.227 288.224 234.652C282.312 238.078 275.69 240 265.903 238.663C256.117 237.326 234.82 233.89 234.82 233.89C234.82 233.89 256.754 218.223 262.279 210.431C267.804 202.64 269.716 196.132 274.102 191.746C278.489 187.359 299.66 182.972 300.047 200.321Z" fill="#263238" stroke="#263238" stroke-linecap="round" stroke-linejoin="round"/>
<path d="M168.81 259.542C233.56 259.542 286.051 218.976 286.051 168.934C286.051 118.893 233.56 78.3269 168.81 78.3269C104.059 78.3269 51.5681 118.893 51.5681 168.934C51.5681 218.976 104.059 259.542 168.81 259.542Z" fill="#263238" stroke="#263238" stroke-linecap="round" stroke-linejoin="round"/>
<path d="M168.81 256.826C233.56 256.826 286.051 216.26 286.051 166.219C286.051 116.178 233.56 75.6113 168.81 75.6113C104.059 75.6113 51.5681 116.178 51.5681 166.219C51.5681 216.26 104.059 256.826 168.81 256.826Z" fill="#0F006A" fill-opacity="0.7" stroke="#263238" stroke-linecap="round" stroke-linejoin="round"/>
<path d="M226.903 110.58L241.776 126.905L215.424 145.81L200.238 127.385L226.903 110.58Z" fill="white" stroke="#263238" stroke-linecap="round" stroke-linejoin="round"/>
<path d="M146.458 111.99L122.122 124.503L143.68 150.917L168.705 134.237L146.458 111.99Z" fill="white" stroke="#263238" stroke-linecap="round" stroke-linejoin="round"/>
<path d="M183.359 138.447L159.033 150.959L180.581 177.374L205.606 160.694L183.359 138.447Z" fill="white" stroke="#263238" stroke-linecap="round" stroke-linejoin="round"/>
<path d="M180.643 140.368L154.438 148.202L170.773 178.126L198.431 166.313L180.643 140.368Z" fill="white" stroke="#263238" stroke-linecap="round" stroke-linejoin="round"/>
<path d="M149.372 97.1482C149.372 97.1482 154.103 95.383 154.103 96.5633C154.103 97.7435 154.103 98.9238 152.015 99.5191C149.926 100.114 142.855 98.6313 144.63 97.7435C146.145 97.1867 147.767 96.9831 149.372 97.1482Z" fill="white" stroke="#263238" stroke-linecap="round" stroke-linejoin="round"/>
<path d="M123.198 46.3871C123.198 46.3871 117.067 48.5491 113.996 52.351C110.925 56.1529 109.484 66.0648 108.774 70.3994C108.063 74.7339 104.805 91.1634 106.611 93.1479C108.418 95.1324 127.731 101.817 131.522 102.903C135.313 103.989 139.878 105.608 142.364 105.431C144.18 105.17 145.91 104.491 147.419 103.446C147.419 103.446 151.753 105.431 152.829 105.431C153.905 105.431 155.357 103.446 154.093 101.451C152.829 99.4565 149.309 96.5633 147.325 96.5633C145.34 96.5633 138.029 97.66 138.029 97.66C138.029 97.66 125.569 91.341 121.955 88.8134C119.69 87.2042 117.575 85.3933 115.636 83.403L123.041 60.2889" fill="#263238"/>
<path d="M123.198 46.3871C123.198 46.3871 117.067 48.5491 113.996 52.351C110.925 56.1529 109.484 66.0648 108.774 70.3994C108.063 74.7339 104.805 91.1634 106.611 93.1479C108.418 95.1324 127.731 101.817 131.522 102.903C135.313 103.989 139.878 105.608 142.364 105.431C144.18 105.17 145.91 104.491 147.419 103.446C147.419 103.446 151.753 105.431 152.829 105.431C153.905 105.431 155.357 103.446 154.093 101.451C152.829 99.4565 149.309 96.5633 147.325 96.5633C145.34 96.5633 138.029 97.66 138.029 97.66C138.029 97.66 125.569 91.341 121.955 88.8134C119.69 87.2042 117.575 85.3933 115.636 83.403L123.041 60.2889" stroke="#263238" stroke-linecap="round" stroke-linejoin="round"/>
<path d="M147.304 96.5633C145.319 96.5633 138.008 97.6599 138.008 97.6599C138.008 97.6599 136.629 96.9706 134.666 95.947C133.141 96.9818 131.973 98.463 131.324 100.188C131.092 101.018 130.962 101.874 130.937 102.736L131.501 102.903C135.293 103.948 139.857 105.608 142.343 105.431C144.159 105.17 145.89 104.491 147.398 103.446C147.398 103.446 151.732 105.431 152.808 105.431C153.884 105.431 155.336 103.446 154.072 101.451C152.808 99.4564 149.288 96.5633 147.304 96.5633Z" fill="white" stroke="#263238" stroke-linecap="round" stroke-linejoin="round"/>
<path d="M64.6134 64.2788C64.0599 64.4459 59.8611 69.0312 59.4955 74.3371C59.13 79.6429 63.1512 88.406 63.8823 89.8683C64.6134 91.3305 63.7047 93.8895 65.5326 93.8895C67.3604 93.8895 73.0319 85.4815 73.0319 85.4815C73.0319 85.4815 79.424 85.8471 80.1551 84.2073C80.8862 82.5675 75.0372 73.4179 73.763 69.5847C72.4887 65.7515 67.7259 63.3701 64.6134 64.2788Z" fill="white" stroke="#263238" stroke-linecap="round" stroke-linejoin="round"/>
<path d="M64.2479 61.5423C64.2606 64.057 64.0156 66.5663 63.5168 69.0311C62.7856 71.59 62.6081 72.8747 65.3446 76.8959C68.0925 80.5101 71.0868 83.9302 74.3061 87.1317C74.3061 87.1317 74.6717 82.9538 74.8597 80.5516C75.0477 78.1493 78.6929 76.7079 79.424 75.6112C80.1551 74.5145 75.4028 73.7834 73.575 70.4933C71.7472 67.2033 71.7472 61.5423 69.1882 60.9887C66.6293 60.4351 65.2088 58.9833 64.2479 61.5423Z" fill="white" stroke="#263238" stroke-linecap="round" stroke-linejoin="round"/>
<path d="M88.7511 50.3873C88.7511 50.3873 93.869 48.9251 92.929 43.8072C91.9889 38.6893 82.6932 34.8561 72.6454 35.7648C62.5976 36.6735 58.0229 43.2641 57.1037 49.8442C56.1846 56.4244 63.1303 62.8165 63.8614 63.9132C64.5926 65.0099 63.6839 66.1066 65.8773 66.8377C67.3698 67.2569 68.949 67.2569 70.4416 66.8377C70.9821 67.6153 71.7364 68.2195 72.6132 68.5773C73.49 68.9351 74.4517 69.031 75.3819 68.8535C78.5153 68.1224 77.5753 61.9078 78.86 61.1767C80.1447 60.4456 81.0534 58.0433 84.8866 55.8708C88.7198 53.6983 88.7511 50.3873 88.7511 50.3873Z" fill="#263238" stroke="#263238" stroke-linecap="round" stroke-linejoin="round"/>
<path d="M73.2094 65.5635C73.2094 65.5635 73.575 62.639 69.9193 62.2734C66.2637 61.9078 67.1828 65.4068 67.9139 67.0257C68.6451 68.6447 71.1936 69.9502 71.1936 69.9502C71.1936 69.9502 72.1127 74.1281 73.3974 74.5146C74.6821 74.901 82.3485 78.1702 83.8421 77.648C85.3357 77.1257 86.7666 70.3367 86.7666 70.3367C86.7666 70.3367 89.3255 69.052 89.3255 67.7777C89.3255 66.5035 88.1871 62.8165 88.1871 61.9496C88.1871 61.0827 90.2029 58.4715 90.5685 56.4662C90.934 54.4608 88.7406 50.4291 88.7406 50.4291C88.7406 50.4291 87.8215 53.7192 84.897 53.7192C82.916 53.6737 80.9495 53.3682 79.048 52.8105C79.048 52.8105 80.5102 56.6437 79.4135 58.294C78.3169 59.9442 76.489 59.5682 76.1235 60.2994C75.7579 61.0305 75.9459 64.3206 75.7579 65.0517C75.5699 65.7828 74.3061 68.3 73.2094 65.5635Z" fill="white" stroke="#263238" stroke-linecap="round" stroke-linejoin="round"/>
<path d="M90.9445 85.4815C90.9445 85.4815 91.8531 92.7927 93.681 95.7172C95.5088 98.6418 103.186 109.974 103.186 109.974C103.186 109.974 102.642 113.818 103.186 114.915C104.28 117.216 105.198 119.597 105.933 122.038C105.933 122.769 107.395 123.323 107.572 122.226C107.695 121.378 107.757 120.523 107.76 119.667L110.894 124.419C110.894 124.419 112.544 125.693 113.087 124.597C113.63 123.5 113.275 117.651 113.641 115.28C114.006 112.909 112.178 109.609 110.716 108.146C109.254 106.684 107.426 104.125 106.873 103.582C106.319 103.039 103.948 94.443 102.851 88.594C101.755 82.745 98.8302 79.0893 96.6368 78.7238" fill="white"/>
<path d="M90.9445 85.4815C90.9445 85.4815 91.8531 92.7927 93.681 95.7172C95.5088 98.6418 103.186 109.974 103.186 109.974C103.186 109.974 102.642 113.818 103.186 114.915C104.28 117.216 105.198 119.597 105.933 122.038C105.933 122.769 107.395 123.323 107.572 122.226C107.695 121.378 107.757 120.523 107.76 119.667L110.894 124.419C110.894 124.419 112.544 125.693 113.087 124.597C113.63 123.5 113.275 117.651 113.641 115.28C114.006 112.909 112.178 109.609 110.716 108.146C109.254 106.684 107.426 104.125 106.873 103.582C106.319 103.039 103.948 94.443 102.851 88.594C101.755 82.745 98.8302 79.0893 96.6368 78.7238" stroke="#263238" stroke-linecap="round" stroke-linejoin="round"/>
<path d="M113.056 124.618C113.609 123.573 113.244 117.672 113.609 115.301C113.975 112.93 112.147 109.63 110.685 108.167C109.631 107.048 108.637 105.873 107.708 104.647C105.498 105.271 103.514 106.518 101.995 108.24L103.186 109.995C103.186 109.995 102.643 113.839 103.186 114.935C104.28 117.237 105.198 119.618 105.933 122.059C105.933 122.79 107.395 123.343 107.572 122.247C107.695 121.399 107.757 120.544 107.76 119.688L110.894 124.44C110.894 124.44 112.513 125.662 113.056 124.618Z" fill="white" stroke="#263238" stroke-linecap="round" stroke-linejoin="round"/>
<path d="M47.0664 78.1702C44.6805 80.0613 43.0054 82.7046 42.3141 85.6695C41.0398 90.7874 45.2386 111.625 46.3353 117.651C47.4319 123.678 52.9154 143.763 54.5657 145.068C56.2159 146.374 75.4028 143.972 82.3485 142.697C89.2942 141.423 104.282 136.117 107.416 135.198C110.549 134.279 112.168 129.537 113.077 128.618C113.985 127.699 116.001 124.597 114.905 123.5C113.808 122.403 110.727 123.5 109.421 123.5C108.116 123.5 105.765 123.323 103.207 123.323C101.939 123.357 100.718 123.803 99.7283 124.595C98.7385 125.387 98.0344 126.481 97.7231 127.709C97.373 129.095 96.7517 130.398 95.8953 131.543C95.8953 131.543 77.0948 134.101 73.0527 134.101C70.4225 134.082 67.7959 133.901 65.1879 133.558C65.1879 133.558 62.9945 120.941 61.3443 113.087C59.694 105.232 58.2109 99.1954 56.9575 97.1795" fill="white"/>
<path d="M47.0664 78.1702C44.6805 80.0613 43.0054 82.7046 42.3141 85.6695C41.0398 90.7874 45.2386 111.625 46.3353 117.651C47.4319 123.678 52.9154 143.763 54.5657 145.068C56.2159 146.374 75.4028 143.972 82.3485 142.697C89.2942 141.423 104.282 136.117 107.416 135.198C110.549 134.279 112.168 129.537 113.077 128.618C113.985 127.699 116.001 124.597 114.905 123.5C113.808 122.403 110.727 123.5 109.421 123.5C108.116 123.5 105.765 123.323 103.207 123.323C101.939 123.357 100.718 123.803 99.7283 124.595C98.7385 125.387 98.0344 126.481 97.7231 127.709C97.373 129.095 96.7517 130.398 95.8953 131.543C95.8953 131.543 77.0948 134.101 73.0527 134.101C70.4225 134.082 67.7959 133.901 65.1879 133.558C65.1879 133.558 62.9945 120.941 61.3443 113.087C59.694 105.232 58.2109 99.1954 56.9575 97.1795" stroke="#263238" stroke-linecap="round" stroke-linejoin="round"/>
<path d="M109.4 123.5C108.126 123.5 105.745 123.323 103.186 123.323C101.919 123.357 100.697 123.803 99.7074 124.595C98.7176 125.387 98.0135 126.481 97.7022 127.709C97.3521 129.095 96.7308 130.398 95.8744 131.543L94.5479 131.72C95.0752 132.812 95.4008 133.99 95.5088 135.198C95.5635 136.519 95.483 137.842 95.2686 139.146C100.679 137.433 105.713 135.689 107.395 135.198C110.528 134.289 112.147 129.537 113.056 128.618C113.965 127.699 115.98 124.597 114.884 123.5C113.787 122.403 110.685 123.5 109.4 123.5Z" fill="white" stroke="#263238" stroke-linecap="round" stroke-linejoin="round"/>
<path d="M97.0337 157.947C97.0337 157.947 101.744 158.333 103.301 158.333C104.857 158.333 115.667 157.163 114.1 155.398C112.534 153.633 100.731 152.056 100.731 152.056L97.0337 157.947Z" fill="white" stroke="#263238" stroke-linecap="round" stroke-linejoin="round"/>
<path d="M120.576 147.345L86.2444 163.242L99.5822 190.315L133.329 173.248L120.576 147.345Z" fill="white" stroke="#263238" stroke-linecap="round" stroke-linejoin="round"/>
<path d="M97.5873 156.369C97.5873 156.369 101.702 156.37 102.684 156.965C103.666 157.56 107.781 161.279 108.377 160.297C108.972 159.315 106.611 156.965 105.63 155.983C104.648 155.001 103.666 154.218 103.666 154.218" fill="white"/>
<path d="M97.5873 156.369C97.5873 156.369 101.702 156.37 102.684 156.965C103.666 157.56 107.781 161.279 108.377 160.297C108.972 159.315 106.611 156.965 105.63 155.983C104.648 155.001 103.666 154.218 103.666 154.218" stroke="#263238" stroke-linecap="round" stroke-linejoin="round"/>
<path d="M65.3655 142.844L100.721 152.056L95.185 160.161L57.9707 155.743C57.9707 155.743 49.1449 143.585 65.3655 142.844Z" fill="white" stroke="#263238" stroke-linecap="round" stroke-linejoin="round"/>
<path d="M40.34 144.389C40.34 144.389 31.7231 151.701 28.8509 160.579C25.9786 169.457 24.1508 187.213 24.1508 187.213C24.1508 187.213 15.0117 200.268 15.0117 201.574C15.0117 202.88 22.584 201.574 22.584 201.574L15.2728 214.108C15.2728 214.108 15.2728 224.552 21.0173 230.036C23.6693 232.555 26.8515 234.449 30.3305 235.578C33.8096 236.708 37.4973 237.045 41.1234 236.564C47.3902 235.519 58.8793 221.419 60.1849 220.636C61.4905 219.852 57.0515 207.841 56.007 203.402C54.9626 198.963 57.0515 195.829 58.3571 195.046C59.6627 194.263 67.235 189.563 68.8018 186.168C70.3685 182.774 70.1073 177.029 69.5851 172.59C69.0629 168.151 62.5349 152.745 56.7904 148.045C51.0458 143.345 45.8235 140.212 40.34 144.389Z" fill="white" stroke="#263238" stroke-linecap="round" stroke-linejoin="round"/>
<path d="M45.5624 143.084C45.5624 143.084 41.6456 148.829 41.6456 153.006C41.6456 157.184 45.0401 163.973 47.6513 167.107C49.1861 168.957 50.8436 170.701 52.6125 172.329L58.3571 171.023L58.6182 175.462C58.6182 175.462 59.9238 173.112 63.5794 174.679C67.2351 176.246 69.5851 175.201 69.5851 174.418C70.8337 169.359 70.8337 164.071 69.5851 159.012C67.4962 149.873 65.1461 148.306 61.7516 144.912C58.3571 141.517 50.5236 140.212 45.5624 143.084Z" fill="white" stroke="#263238" stroke-linecap="round" stroke-linejoin="round"/>
<path d="M48.1735 144.39C48.1735 144.39 45.3012 149.351 46.8679 153.268C48.4346 157.184 53.3959 161.884 57.3126 165.279C61.2294 168.673 66.1906 172.329 66.1906 172.329C67.0766 169.44 67.3714 166.401 67.0573 163.396C66.7433 160.39 65.8269 157.478 64.3628 154.834C59.4016 145.434 50.5236 142.562 48.1735 144.39Z" fill="white" stroke="#263238" stroke-linecap="round" stroke-linejoin="round"/>
<path d="M70.8907 120.628C71.6226 122.323 72.2334 124.068 72.7185 125.85V127.678C72.7185 127.678 76.3742 129.767 75.8519 130.55C75.3297 131.334 73.2408 134.728 73.2408 134.728C73.5268 137.6 73.439 140.496 72.9796 143.345C72.1963 146.74 73.2408 148.306 70.3685 148.306H63.0572C63.0572 148.306 62.2738 159.273 60.446 159.273C58.6182 159.273 50.2625 155.356 48.6958 153.267C47.1291 151.178 46.6068 149.09 47.1291 147.523C48.7541 143.337 50.1488 139.066 51.3069 134.728C52.3514 130.028 60.1849 126.372 62.0127 125.589C63.8405 124.806 70.8907 120.628 70.8907 120.628Z" fill="white" stroke="#263238" stroke-linecap="round" stroke-linejoin="round"/>
<path d="M41.9067 139.167C41.9067 139.167 35.6399 138.123 32.5065 138.645C29.3731 139.167 25.4564 143.606 25.4564 148.045C25.4564 152.484 28.8509 155.095 34.3343 155.617C39.8178 156.14 43.4734 151.44 43.4734 148.828C43.4764 145.545 42.9473 142.282 41.9067 139.167Z" fill="#263238" stroke="#263238" stroke-linecap="round" stroke-linejoin="round"/>
<path d="M57.8348 137.862C57.8348 137.862 67.7573 127.156 70.8907 120.628C74.0241 114.1 72.9796 107.311 68.0184 107.311C63.0572 107.311 57.5737 105.744 48.1735 109.139C38.7733 112.533 34.8566 123.5 35.3788 129.245C35.901 134.989 44.5179 146.74 48.9569 147.523C53.3959 148.306 53.3959 140.473 53.3959 140.473L57.8348 137.862Z" fill="#263238" stroke="#263238" stroke-linecap="round" stroke-linejoin="round"/>
<path d="M59.1404 139.689C59.1404 139.689 56.7904 134.467 53.9181 136.034C51.0458 137.6 53.657 143.345 55.4848 144.651C57.3126 145.956 60.1849 143.867 60.1849 143.867" fill="white"/>
<path d="M59.1404 139.689C59.1404 139.689 56.7904 134.467 53.9181 136.034C51.0458 137.6 53.657 143.345 55.4848 144.651C57.3126 145.956 60.1849 143.867 60.1849 143.867" stroke="#263238" stroke-linecap="round" stroke-linejoin="round"/>
<path d="M72.7185 127.678C72.7185 127.678 71.6741 131.072 70.3685 131.595" stroke="#263238" stroke-linecap="round" stroke-linejoin="round"/>
<path d="M92.741 174.961C92.741 174.961 90.7356 173.624 90.4745 175.358C90.2134 177.092 92.2083 178.961 92.2083 178.961C92.2083 178.961 89.6702 176.162 89.5344 177.76C89.3987 179.358 91.0071 181.102 91.0071 181.102C91.0071 181.102 89.0018 180.162 89.0018 180.967C89.0018 181.771 91.8114 184.57 91.9367 185.897C92.0621 187.223 94.6106 183.097 95.1432 179.901C95.2564 178.934 95.0903 177.955 94.6646 177.08C94.2389 176.204 93.5714 175.469 92.741 174.961Z" fill="white" stroke="#263238" stroke-linecap="round" stroke-linejoin="round"/>
<path d="M88.9078 194.785C89.5382 192.475 89.975 190.117 90.2134 187.735C90.2134 185.646 92.5634 181.99 93.6079 179.901C94.6523 177.812 90.2134 174.157 92.3023 173.112C94.3912 172.068 95.9579 174.157 97.7858 176.507C99.6136 178.857 100.136 183.818 98.5691 187.213C97.0917 190.354 95.1557 193.258 92.8245 195.829C92.0597 196.648 91.1801 197.352 90.2134 197.918L88.9078 194.785Z" fill="white" stroke="#263238" stroke-linecap="round" stroke-linejoin="round"/>
<path d="M90.8818 189.772V183.16C90.8818 179.849 92.741 174.961 92.741 174.961C93.0467 174.92 93.3579 174.955 93.6465 175.065C93.9351 175.174 94.192 175.353 94.3941 175.586C94.5961 175.819 94.737 176.099 94.804 176.4C94.8709 176.701 94.8619 177.014 94.7777 177.311C94.6066 179.46 94.7367 181.622 95.1641 183.735" fill="white"/>
<path d="M90.8818 189.772V183.16C90.8818 179.849 92.741 174.961 92.741 174.961C93.0467 174.92 93.3579 174.955 93.6465 175.065C93.9351 175.174 94.192 175.353 94.3941 175.586C94.5961 175.819 94.737 176.099 94.804 176.4C94.8709 176.701 94.8619 177.014 94.7777 177.311C94.6066 179.46 94.7367 181.622 95.1641 183.735" stroke="#263238" stroke-linecap="round" stroke-linejoin="round"/>
<path d="M33.0287 185.907C33.0287 185.907 29.3731 191.129 31.2009 196.874C33.0287 202.619 59.1404 237.347 62.7961 237.347C66.4517 237.347 92.8245 203.141 94.3912 201.052C95.9579 198.963 89.1689 193.741 89.1689 193.741L62.7961 217.763C62.7961 217.763 55.7459 189.563 52.8736 184.34C50.0013 179.118 43.2123 178.596 43.2123 178.596" fill="white"/>
<path d="M33.0287 185.907C33.0287 185.907 29.3731 191.129 31.2009 196.874C33.0287 202.619 59.1404 237.347 62.7961 237.347C66.4517 237.347 92.8245 203.141 94.3912 201.052C95.9579 198.963 89.1689 193.741 89.1689 193.741L62.7961 217.763C62.7961 217.763 55.7459 189.563 52.8736 184.34C50.0013 179.118 43.2123 178.596 43.2123 178.596" stroke="#263238" stroke-linecap="round" stroke-linejoin="round"/>
<path d="M159.315 75.277C159.315 75.277 162.919 71.308 166.71 70.5769C170.502 69.8458 172.486 72.3838 171.41 76.8959C170.334 81.408 166.898 82.4943 164.903 82.3167C162.908 82.1392 159.681 81.2723 158.772 78.8909C158.481 78.3056 158.377 77.6448 158.474 76.9983C158.571 76.3518 158.865 75.7509 159.315 75.277Z" fill="#263238" stroke="#263238" stroke-linecap="round" stroke-linejoin="round"/>
<path d="M161.477 74.1908C161.477 74.1908 153.717 75.2353 151.91 76.5408C150.103 77.8464 145.946 84.8444 145.946 85.7426C145.946 86.6409 148.474 87.5495 149.738 87.5495C151.001 87.5495 154.26 83.215 154.26 83.215L152.631 87.7375C152.631 87.7375 154.26 87.5495 154.438 86.8289C154.615 86.1082 157.143 81.2305 157.143 81.2305C157.143 81.2305 161.843 81.4185 163.107 79.246C164.371 77.0735 165.269 75.6322 161.477 74.1908Z" fill="white" stroke="#263238" stroke-linecap="round" stroke-linejoin="round"/>
<path d="M177.061 62.2734C177.061 62.2734 174.888 69.5847 174.888 74.1177C174.888 78.6507 178.011 93.2837 178.011 93.2837C177.579 95.76 176.498 98.0774 174.878 99.9996C172.309 102.767 173.102 106.517 174.283 107.697C175.463 108.878 177.844 111.061 178.628 109.671C179.411 108.282 178.826 105.723 179.62 104.741C180.414 103.76 183.369 102.172 183.798 99.2058C184.226 96.2395 183.599 87.1631 183.599 82.2228C183.599 77.2824 186.169 69.9816 183.401 64.8533" fill="white"/>
<path d="M177.061 62.2734C177.061 62.2734 174.888 69.5847 174.888 74.1177C174.888 78.6507 178.011 93.2837 178.011 93.2837C177.579 95.76 176.498 98.0774 174.878 99.9996C172.309 102.767 173.102 106.517 174.283 107.697C175.463 108.878 177.844 111.061 178.628 109.671C179.411 108.282 178.826 105.723 179.62 104.741C180.414 103.76 183.369 102.172 183.798 99.2058C184.226 96.2395 183.599 87.1631 183.599 82.2228C183.599 77.2824 186.169 69.9816 183.401 64.8533" stroke="#263238" stroke-linecap="round" stroke-linejoin="round"/>
<path d="M183.808 90.9441C180.602 90.3069 178.836 91.3932 177.896 92.563C177.99 93.0121 178.053 93.2732 178.053 93.2732C177.621 95.7495 176.54 98.0669 174.92 99.9892C172.35 102.757 173.144 106.507 174.324 107.687C175.505 108.867 177.886 111.05 178.669 109.661C179.453 108.272 178.868 105.713 179.662 104.731C180.455 103.749 183.411 102.162 183.839 99.1954C183.994 96.4468 183.984 93.6914 183.808 90.9441Z" fill="white" stroke="#263238" stroke-linecap="round" stroke-linejoin="round"/>
<path d="M189.302 90.7038L170.345 112.23L189.5 125.861L207.862 102.559L189.302 90.7038Z" fill="white" stroke="#263238" stroke-linecap="round" stroke-linejoin="round"/>
<path d="M181.009 99.5505C181.009 99.5505 181.207 106.266 181.207 107.259C181.207 108.251 183.38 109.431 183.578 107.06C183.61 105.736 183.743 104.416 183.975 103.112C184.174 102.517 185.354 98.7671 183.777 95.9993" fill="white"/>
<path d="M181.009 99.5505C181.009 99.5505 181.207 106.266 181.207 107.259C181.207 108.251 183.38 109.431 183.578 107.06C183.61 105.736 183.743 104.416 183.975 103.112C184.174 102.517 185.354 98.7671 183.777 95.9993" stroke="#263238" stroke-linecap="round" stroke-linejoin="round"/>
<path d="M234.329 47.2644C234.329 47.2644 229.002 53.1865 226.433 58.7535C223.863 64.3205 221.889 78.494 221.889 78.494C221.889 78.494 211.622 95.2786 210.233 96.6677C208.844 98.0569 209.648 97.848 206.285 99.4251C202.922 101.002 198.587 101.796 197.992 102.788C197.397 103.781 195.224 108.512 194.639 109.107C194.054 109.703 195.423 110.883 196.216 110.089C197.01 109.295 199.768 106.141 199.768 106.141L196.415 114.037C196.421 114.182 196.457 114.324 196.521 114.454C196.585 114.585 196.675 114.7 196.786 114.793C196.897 114.887 197.027 114.956 197.166 114.997C197.305 115.037 197.451 115.048 197.595 115.029C199.043 114.76 200.449 114.296 201.773 113.651C201.773 113.651 205.136 112.857 206.316 111.28C207.497 109.703 211.852 101.201 211.852 101.201C211.852 101.201 223.341 93.8894 227.446 88.9595C230.659 85.0642 233.198 80.6583 234.956 75.9246C235.541 73.9505 242.852 52.0376 242.653 48.476C242.455 44.9143 240.679 44.2981 240.679 44.2981" fill="white"/>
<path d="M234.329 47.2644C234.329 47.2644 229.002 53.1865 226.433 58.7535C223.863 64.3205 221.889 78.494 221.889 78.494C221.889 78.494 211.622 95.2786 210.233 96.6677C208.844 98.0569 209.648 97.848 206.285 99.4251C202.922 101.002 198.587 101.796 197.992 102.788C197.397 103.781 195.224 108.512 194.639 109.107C194.054 109.703 195.423 110.883 196.216 110.089C197.01 109.295 199.768 106.141 199.768 106.141L196.415 114.037C196.421 114.182 196.457 114.324 196.521 114.454C196.585 114.585 196.675 114.7 196.786 114.793C196.897 114.887 197.027 114.956 197.166 114.997C197.305 115.037 197.451 115.048 197.595 115.029C199.043 114.76 200.449 114.296 201.773 113.651C201.773 113.651 205.136 112.857 206.316 111.28C207.497 109.703 211.852 101.201 211.852 101.201C211.852 101.201 223.341 93.8894 227.446 88.9595C230.659 85.0642 233.198 80.6583 234.956 75.9246C235.541 73.9505 242.852 52.0376 242.653 48.476C242.455 44.9143 240.679 44.2981 240.679 44.2981" stroke="#263238" stroke-linecap="round" stroke-linejoin="round"/>
<path d="M209.648 97.2631C209.001 98.0046 209.022 98.1091 206.285 99.352C202.932 100.94 198.587 101.723 197.992 102.715C197.397 103.707 195.224 108.439 194.639 109.034C194.054 109.63 195.423 110.81 196.216 110.016C197.01 109.222 199.768 106.068 199.768 106.068L196.415 113.964C196.421 114.109 196.457 114.251 196.521 114.381C196.585 114.512 196.675 114.627 196.786 114.72C196.897 114.814 197.027 114.883 197.166 114.924C197.305 114.964 197.451 114.975 197.595 114.956C199.043 114.687 200.449 114.223 201.773 113.578C201.773 113.578 205.136 112.784 206.316 111.207C207.497 109.63 211.852 101.128 211.852 101.128C211.852 101.128 212.562 100.678 213.711 99.916C212.659 98.6385 211.241 97.7129 209.648 97.2631Z" fill="white" stroke="#263238" stroke-linecap="round" stroke-linejoin="round"/>
<path d="M287.994 103.467C287.994 103.467 283.628 111.708 282.824 114.956C282.019 118.205 280.735 121.745 280.735 121.745C280.735 121.745 272.651 120.45 265.705 119.656C258.759 118.863 248.899 117.066 246.466 116.586C244.032 116.105 239.52 114.8 238.549 115.614C237.577 116.429 238.225 116.262 239.363 116.742C240.304 117.03 241.3 117.087 242.267 116.91C242.267 116.91 240.648 117.39 238.872 118.038C237.097 118.685 233.859 119.813 233.379 120.461C232.898 121.108 234.026 123.375 235.802 123.375C237.148 123.289 238.498 123.289 239.844 123.375C240.815 123.531 241.296 124.503 244.533 124.503C247.771 124.503 252.283 121.913 252.283 121.913C252.283 121.913 267.48 128.869 276.045 130.32C284.61 131.772 285.905 129.84 289.466 127.083C293.028 124.325 303.358 107.374 302.554 103.979C302.028 101.854 301.152 99.8319 299.963 97.9942" fill="#263238"/>
<path d="M287.994 103.467C287.994 103.467 283.628 111.708 282.824 114.956C282.019 118.205 280.735 121.745 280.735 121.745C280.735 121.745 272.65 120.45 265.705 119.656C258.759 118.863 248.899 117.066 246.466 116.586C244.032 116.105 239.52 114.8 238.549 115.614C237.577 116.429 238.225 116.262 239.363 116.742C240.304 117.03 241.3 117.087 242.267 116.91C242.267 116.91 240.648 117.39 238.872 118.038C237.097 118.685 233.859 119.813 233.379 120.461C232.898 121.108 234.026 123.375 235.802 123.375C237.148 123.289 238.498 123.289 239.844 123.375C240.815 123.531 241.296 124.503 244.533 124.503C247.771 124.503 252.283 121.913 252.283 121.913C252.283 121.913 267.48 128.869 276.045 130.32C284.61 131.772 285.905 129.84 289.466 127.083C293.028 124.325 303.358 107.374 302.554 103.979C302.028 101.854 301.152 99.8319 299.963 97.9942" stroke="#263238" stroke-linecap="round" stroke-linejoin="round"/>
<path d="M255.761 118.205C251.531 117.515 247.824 116.836 246.455 116.565C244.032 116.074 239.51 114.779 238.538 115.594C237.567 116.408 238.214 116.241 239.353 116.722C240.293 117.009 241.289 117.066 242.257 116.889C242.257 116.889 240.638 117.369 238.862 118.017C237.086 118.664 233.849 119.792 233.368 120.44C232.888 121.087 234.016 123.354 235.791 123.354C237.137 123.268 238.487 123.268 239.833 123.354C240.805 123.511 241.285 124.482 244.523 124.482C247.761 124.482 252.273 121.892 252.273 121.892C252.273 121.892 253.464 122.435 255.354 123.249L255.761 118.205Z" fill="white" stroke="#263238" stroke-linecap="round" stroke-linejoin="round"/>
<path d="M245.327 78.5776C245.327 78.5776 237.734 82.2959 234.82 84.8444C231.906 87.3929 224.636 103.749 224.48 104.877C224.323 106.005 229.974 106.663 230.621 106.34C231.269 106.016 242.747 92.7615 245.651 90.495C246.453 89.9727 247.052 89.1908 247.346 88.2801C247.641 87.3694 247.614 86.3851 247.27 85.4919" fill="#263238"/>
<path d="M245.327 78.5776C245.327 78.5776 237.734 82.2959 234.82 84.8444C231.906 87.3929 224.636 103.749 224.48 104.877C224.323 106.005 229.974 106.663 230.621 106.34C231.269 106.016 242.747 92.7615 245.651 90.495C246.453 89.9727 247.052 89.1908 247.346 88.2801C247.641 87.3694 247.614 86.3851 247.27 85.4919" stroke="#263238" stroke-linecap="round" stroke-linejoin="round"/>
<path d="M227.227 101.535C224.821 102.044 222.446 102.689 220.114 103.467C218.171 104.282 213.649 110.1 214.777 110.423C215.905 110.747 218.954 107.029 218.954 107.029C217.881 108.55 216.961 110.173 216.207 111.875C215.884 113.17 215.56 116.053 216.855 115.593C218.15 115.134 220.73 111.551 220.73 111.551C220.73 111.551 223.957 109.609 226.548 109.609C229.138 109.609 230.914 104.762 230.914 104.762C230.914 104.762 233.003 102.673 232.209 100.396C231.415 98.1195 227.227 101.535 227.227 101.535Z" fill="white" stroke="#263238" stroke-linecap="round" stroke-linejoin="round"/>
<path d="M231.592 100.24C230.953 100.266 230.316 100.148 229.729 99.8948C229.141 99.6417 228.618 99.2599 228.198 98.7776C226.903 97.1691 226.109 98.7776 226.109 100.396C226.129 100.868 226.294 101.322 226.582 101.696C226.87 102.07 227.267 102.346 227.718 102.485C227.718 102.485 224.971 105.076 226.59 105.88C227.124 106.092 227.704 106.158 228.273 106.074C228.841 105.99 229.377 105.757 229.827 105.4" fill="white"/>
<path d="M231.592 100.24C230.953 100.266 230.316 100.148 229.729 99.8948C229.141 99.6417 228.618 99.2599 228.198 98.7776C226.903 97.1691 226.109 98.7776 226.109 100.396C226.129 100.868 226.294 101.322 226.582 101.696C226.87 102.07 227.267 102.346 227.718 102.485C227.718 102.485 224.971 105.076 226.59 105.88C227.124 106.092 227.704 106.158 228.273 106.074C228.841 105.99 229.377 105.757 229.827 105.4" stroke="#263238" stroke-linecap="round" stroke-linejoin="round"/>
<path d="M288.412 142.374C288.412 142.374 280.401 140.849 277.539 140.285C274.677 139.721 265.329 143.533 262.665 144.463C260.002 145.392 262.665 146.186 265.527 146.75C268.389 147.314 274.102 146.186 274.102 146.186C274.102 146.186 267.836 148.849 269.34 149.236C270.844 149.622 273.914 148.849 276.588 148.661C279.262 148.473 281.925 145.987 281.925 145.987C281.925 145.987 294.71 152.254 296.235 152.254C297.76 152.254 300.047 147.679 296.799 145.768C294.121 144.363 291.312 143.226 288.412 142.374Z" fill="white" stroke="#263238" stroke-linecap="round" stroke-linejoin="round"/>
<path d="M291.273 149.403C286.266 153.195 281.833 157.691 278.113 162.751C272.577 170.574 271.627 186.398 272.776 190.952C273.925 195.506 274.677 200.864 280.213 204.53C285.748 208.196 289.748 209.679 299.284 204.53C308.82 199.381 313.782 182.22 312.863 169.018C311.943 155.816 303.901 146.698 299.702 145.559C295.504 144.421 291.273 149.403 291.273 149.403Z" fill="white" stroke="#263238" stroke-linecap="round" stroke-linejoin="round"/>
<path d="M291.858 151.878C291.858 151.878 288.422 152.265 286.709 154.552C284.996 156.84 285.56 157.602 286.709 158.176C287.068 158.408 287.373 158.714 287.602 159.075C287.831 159.436 287.979 159.842 288.036 160.265C288.036 160.265 284.035 166.752 286.135 168.078C288.234 169.404 297.572 165.028 300.057 161.811C302.543 158.594 301.394 153.226 299.869 151.701C298.344 150.176 291.858 151.878 291.858 151.878Z" fill="white" stroke="#263238" stroke-linecap="round" stroke-linejoin="round"/>
<path d="M289.55 127.093C288.446 128.408 287.163 129.561 285.738 130.519C284.213 131.281 282.312 132.044 283.837 133.193C284.708 133.833 285.535 134.531 286.312 135.282C286.312 135.282 284.401 141.549 285.174 145.194C285.241 145.659 285.408 146.105 285.663 146.5C285.918 146.896 286.255 147.232 286.651 147.486C287.048 147.739 287.494 147.905 287.96 147.97C288.426 148.036 288.9 148.001 289.352 147.868C289.352 147.868 288.777 157.404 288.015 160.265C287.252 163.127 290.876 162.929 293.738 161.216C296.6 159.503 296.987 152.442 298.125 147.293C299.264 142.144 306.136 136.044 301.373 130.321C296.611 124.597 289.55 127.093 289.55 127.093Z" fill="white" stroke="#263238" stroke-linecap="round" stroke-linejoin="round"/>
<path d="M320.644 120.607C313.583 113.358 302.888 115.071 301.384 115.458C301.384 115.458 295.43 114.006 291.984 114.58C288.537 115.155 287.252 125.025 289.352 130.519C290.1 132.491 291.516 134.139 293.352 135.177C293.007 134.874 290.971 132.953 292.934 131.428C294.1 130.471 295.486 129.817 296.966 129.527C296.966 129.527 295.305 134.979 296.015 135.94C298.919 139.804 285.863 158.03 285.351 157.738C285.351 157.738 289.164 159.889 293.937 162.177C304.476 167.242 316.915 156.432 320.821 147.304C323.934 140.097 326.932 127.062 320.644 120.607Z" fill="#263238" stroke="#263238" stroke-linecap="round" stroke-linejoin="round"/>
<path d="M217.952 147.784L208.322 188.069L228.02 197.041L235.468 159.169L217.952 147.784Z" fill="white" stroke="#263238" stroke-linecap="round" stroke-linejoin="round"/>
<path d="M218.62 151.951L210.62 185.427L226.986 192.884L233.18 161.404L218.62 151.951Z" fill="#263238" stroke="#263238" stroke-linecap="round" stroke-linejoin="round"/>
<path d="M235.468 159.169L262.394 160.485L257.14 199.235L228.02 197.041L235.468 159.169Z" fill="white" stroke="#263238" stroke-linecap="round" stroke-linejoin="round"/>
<path d="M243.395 176.382L245.348 176.465L245.547 175.212L243.625 175.076L243.395 176.382Z" fill="#263238"/>
<path d="M247.928 185.176L248.241 183.264L245.526 183.139L245.233 184.988L247.928 185.176Z" fill="#263238"/>
<path d="M243.123 170.898L243.364 169.551L240.92 169.384L240.669 170.794L243.123 170.898Z" fill="#263238"/>
<path d="M244.335 170.961L246.194 171.044L246.393 169.77L244.565 169.645L244.335 170.961Z" fill="#263238"/>
<path d="M242.894 179.317L244.878 179.463L245.16 177.656L243.186 177.572L242.894 179.317Z" fill="#263238"/>
<path d="M249.714 174.293L250.027 172.423L247.218 172.287L246.936 174.105L249.714 174.293Z" fill="#263238"/>
<path d="M241.63 165.373L244.063 165.488L244.419 163.399L242.006 163.273L241.63 165.373Z" fill="#263238"/>
<path d="M247.04 165.623L247.364 163.555L245.63 163.461L245.275 165.54L247.04 165.623Z" fill="#263238"/>
<path d="M241.421 166.563L241.128 168.203L243.562 168.37L243.855 166.668L241.421 166.563Z" fill="#263238"/>
<path d="M246.017 172.235L244.126 172.151L243.823 173.885L245.735 174.021L246.017 172.235Z" fill="#263238"/>
<path d="M246.863 166.814L245.066 166.731L244.763 168.454L246.581 168.579L246.863 166.814Z" fill="#263238"/>
<path d="M248.826 179.734L249.14 177.844L246.372 177.718L246.09 179.546L248.826 179.734Z" fill="#263238"/>
<path d="M237.786 180.163L235.791 180.027L235.53 181.479L237.536 181.573L237.786 180.163Z" fill="#263238"/>
<path d="M237.327 182.763L235.321 182.669L235.05 184.267L237.034 184.413L237.327 182.763Z" fill="#263238"/>
<path d="M236.825 185.594L234.841 185.458L234.59 186.899L236.575 186.993L236.825 185.594Z" fill="#263238"/>
<path d="M236.366 188.184L234.371 188.09L234.089 189.698L236.063 189.845L236.366 188.184Z" fill="#263238"/>
<path d="M238.288 177.342L236.272 177.248L236 178.836L237.995 178.982L238.288 177.342Z" fill="#263238"/>
<path d="M239.248 171.922L237.222 171.828L236.951 173.405L238.966 173.541L239.248 171.922Z" fill="#263238"/>
<path d="M240.22 166.501L238.173 166.407L237.901 167.974L239.927 168.109L240.22 166.501Z" fill="#263238"/>
<path d="M238.747 174.731L236.742 174.595L236.481 176.058L238.496 176.152L238.747 174.731Z" fill="#263238"/>
<path d="M239.718 169.3L237.692 169.154L237.431 170.637L239.457 170.731L239.718 169.3Z" fill="#263238"/>
<path d="M250.915 167.002L248.064 166.866L247.782 168.663L250.612 168.861L250.915 167.002Z" fill="#263238"/>
<path d="M235.854 191.025L233.89 190.889L233.493 193.103L235.457 193.302L235.854 191.025Z" fill="#263238"/>
<path d="M246.56 176.528L249.328 176.653L249.526 175.483L246.748 175.295L246.56 176.528Z" fill="#263238"/>
<path d="M244.857 187.369L247.552 187.495L247.74 186.356L245.045 186.168L244.857 187.369Z" fill="#263238"/>
<path d="M245.703 181.949L248.44 182.074L248.628 180.925L245.902 180.737L245.703 181.949Z" fill="#263238"/>
<path d="M244.701 180.643L242.685 180.507L242.455 181.802L244.502 181.896L244.701 180.643Z" fill="#263238"/>
<path d="M247.354 188.685L244.68 188.56L244.387 190.419L247.04 190.607L247.354 188.685Z" fill="#263238"/>
<path d="M244.199 191.61L243.802 194.148L246.413 194.409L246.842 191.798L244.199 191.61Z" fill="#263238"/>
<path d="M240.168 173.635L242.622 173.802L242.925 172.089L240.46 171.984L240.168 173.635Z" fill="#263238"/>
<path d="M240.429 165.31L240.805 163.211L238.747 163.106L238.382 165.227L240.429 165.31Z" fill="#263238"/>
<path d="M247.406 171.097L250.226 171.232L250.414 170.052L247.594 169.854L247.406 171.097Z" fill="#263238"/>
<path d="M248.252 165.676L251.114 165.812L251.448 163.764L248.565 163.618L248.252 165.676Z" fill="#263238"/>
<path d="M244.314 183.087L242.257 182.983L241.943 184.748L244.032 184.894L244.314 183.087Z" fill="#263238"/>
<path d="M241.045 182.93L238.528 182.815L238.235 184.497L240.742 184.664L241.045 182.93Z" fill="#263238"/>
<path d="M241.745 185.938L241.525 187.213L243.656 187.317L243.855 186.085L241.745 185.938Z" fill="#263238"/>
<path d="M243.468 188.508L241.317 188.403L241.003 190.189L243.186 190.336L243.468 188.508Z" fill="#263238"/>
<path d="M237.274 189.928L239.802 190.106L240.105 188.351L237.567 188.236L237.274 189.928Z" fill="#263238"/>
<path d="M240.544 185.855L238.026 185.677L237.786 187.045L240.314 187.16L240.544 185.855Z" fill="#263238"/>
<path d="M238.747 181.625L241.254 181.74L241.484 180.424L238.987 180.246L238.747 181.625Z" fill="#263238"/>
<path d="M237.055 191.109L236.648 193.417L239.186 193.678L239.604 191.286L237.055 191.109Z" fill="#263238"/>
<path d="M242.998 191.526L240.805 191.37L240.387 193.803L242.612 194.023L242.998 191.526Z" fill="#263238"/>
<path d="M242.424 174.992L239.959 174.815L239.708 176.204L242.194 176.319L242.424 174.992Z" fill="#263238"/>
<path d="M241.985 177.51L239.499 177.395L239.196 179.066L241.682 179.233L241.985 177.51Z" fill="#263238"/>
<path d="M292.224 183.923C292.224 183.923 289.769 184.152 285.591 187.547C281.414 190.941 264.807 219.925 264.807 219.925C264.807 219.925 249.735 210.525 245.923 207.914C242.11 205.303 239.06 200.477 236.961 197.616C234.862 194.754 234.475 194.367 231.613 194.179C228.752 193.991 226.663 192.09 226.276 193.417C225.89 194.743 227.039 195.328 227.801 195.704C228.468 195.96 229.176 196.091 229.89 196.091C228.09 196.362 226.254 195.952 224.741 194.942C221.879 193.229 221.116 192.853 221.116 194.754C221.116 196.655 223.205 199.715 224.741 201.616C226.276 203.517 235.039 204.29 235.039 204.29C238.22 210.43 241.789 216.36 245.724 222.046C251.437 230.057 263.647 238.642 267.083 237.493C270.52 236.344 288.631 213.659 293.592 207.36C298.553 201.062 305.081 193.626 303.504 189.437" fill="white"/>
<path d="M292.224 183.923C292.224 183.923 289.769 184.152 285.591 187.547C281.414 190.941 264.807 219.925 264.807 219.925C264.807 219.925 249.735 210.525 245.923 207.914C242.11 205.303 239.06 200.477 236.961 197.616C234.862 194.754 234.475 194.367 231.613 194.179C228.752 193.991 226.663 192.09 226.276 193.417C225.89 194.743 227.039 195.328 227.801 195.704C228.468 195.96 229.176 196.091 229.89 196.091C228.09 196.362 226.254 195.952 224.741 194.942C221.879 193.229 221.116 192.853 221.116 194.754C221.116 196.655 223.205 199.715 224.741 201.616C226.276 203.517 235.039 204.29 235.039 204.29C238.22 210.43 241.789 216.36 245.724 222.046C251.437 230.057 263.647 238.642 267.083 237.493C270.52 236.344 288.631 213.659 293.592 207.36C298.553 201.062 305.081 193.626 303.504 189.437" stroke="#263238" stroke-linecap="round" stroke-linejoin="round"/>
<path d="M240.742 202.859C239.248 200.989 237.964 199.078 236.919 197.636C234.83 194.775 234.433 194.388 231.572 194.2C228.71 194.012 226.621 192.111 226.234 193.438C225.848 194.764 226.997 195.349 227.759 195.725C228.426 195.981 229.134 196.112 229.848 196.112C228.049 196.383 226.213 195.973 224.699 194.963C221.837 193.25 221.075 192.874 221.075 194.775C221.075 196.676 223.164 199.736 224.699 201.637C226.234 203.538 234.997 204.311 234.997 204.311C234.997 204.311 235.384 205.063 236.042 206.285C237.282 204.751 238.903 203.57 240.742 202.859Z" fill="white" stroke="#263238" stroke-linecap="round" stroke-linejoin="round"/>
</svg>
