<svg width="282" height="219" viewBox="0 0 282 219" fill="none" xmlns="http://www.w3.org/2000/svg">
<path d="M242.791 168.404C242.791 167.226 242.733 101.563 242.649 0.192973L242.791 0.334489H39.1381L39.3058 0.167242C39.3058 61.0576 39.3058 118.526 39.3058 168.378L39.1575 168.224L242.83 168.378L39.1575 168.526H39.0092V168.378C39.0092 118.526 39.0092 61.0576 39.0092 0.167242V0H39.1962H242.849H242.991V0.141512C242.849 101.563 242.791 167.226 242.791 168.404Z" fill="#0F006A"/>
<path d="M273.776 3.9285H8.13165V218.844H273.776V3.9285Z" fill="white"/>
<path d="M243.242 61.9521C243.242 62.0675 195.613 62.1664 136.884 62.1664C78.1545 62.1664 30.5252 62.0675 30.5252 61.9521C30.5252 61.8368 78.1376 61.7379 136.884 61.7379C195.63 61.7379 243.242 61.8368 243.242 61.9521Z" fill="#E0E0E0"/>
<path d="M243.242 84.9066C243.242 85.0302 195.613 85.1209 136.884 85.1209C78.1545 85.1209 30.5252 85.0302 30.5252 84.9066C30.5252 84.783 78.1376 84.6923 136.884 84.6923C195.63 84.6923 243.242 84.7995 243.242 84.9066Z" fill="#E0E0E0"/>
<path d="M243.242 107.861C243.242 107.985 195.613 108.075 136.884 108.075C78.1545 108.075 30.5252 107.985 30.5252 107.861C30.5252 107.737 78.1376 107.647 136.884 107.647C195.63 107.647 243.242 107.746 243.242 107.861Z" fill="#E0E0E0"/>
<path d="M243.242 130.824C243.242 130.939 195.613 131.038 136.884 131.038C78.1545 131.038 30.5252 130.939 30.5252 130.824C30.5252 130.708 78.1376 130.609 136.884 130.609C195.63 130.609 243.242 130.7 243.242 130.824Z" fill="#E0E0E0"/>
<path d="M243.242 153.778C243.242 153.893 195.613 153.992 136.884 153.992C78.1545 153.992 30.5252 153.893 30.5252 153.778C30.5252 153.663 78.1376 153.564 136.884 153.564C195.63 153.564 243.242 153.654 243.242 153.778Z" fill="#E0E0E0"/>
<path d="M243.242 176.733C243.242 176.848 195.613 176.947 136.884 176.947C78.1545 176.947 30.5252 176.848 30.5252 176.733C30.5252 176.617 78.1376 176.518 136.884 176.518C195.63 176.518 243.242 176.617 243.242 176.733Z" fill="#E0E0E0"/>
<path d="M182.327 132.787H161.136V199.473H182.327V132.787Z" fill="#0F006A" fill-opacity="0.75"/>
<path d="M222.346 110.753H201.155V199.473H222.346V110.753Z" fill="#0F006A" fill-opacity="0.75"/>
<path d="M70.7712 168.259H49.5802V199.473H70.7712V168.259Z" fill="#0F006A" fill-opacity="0.75"/>
<path d="M105.829 158.947H84.6379V199.473H105.829V158.947Z" fill="#0F006A" fill-opacity="0.75"/>
<path d="M142.165 147.153H120.974V199.473H142.165V147.153Z" fill="#0F006A" fill-opacity="0.75"/>
<path d="M245.176 199.473H244.201H241.334L230.334 199.514L189.886 199.58L56.4169 199.686H29.8272V199.473C29.8272 154.567 29.8777 114.887 29.8945 86.4347C29.8945 72.2083 29.9449 60.7927 29.9618 52.9276C29.9618 48.9991 29.9618 45.9582 29.9618 43.8872C29.9618 42.8598 29.9618 42.0791 29.9618 41.5449C29.9618 41.0107 29.9618 40.723 29.9618 40.723C29.9618 40.723 29.9618 40.9942 29.9618 41.5449C29.9618 42.0955 29.9618 42.8598 29.9618 43.8872C29.9618 45.95 29.9618 48.9909 30.0038 52.9276C30.0038 60.7927 30.0038 72.2083 30.0711 86.4347C30.0711 114.887 30.1131 154.567 30.1384 199.473L29.9281 199.259H56.4169L189.886 199.325L230.334 199.391L241.334 199.432H244.201L245.176 199.473Z" fill="#0F006A"/>
<path d="M171.05 127.536C171.05 127.536 170.941 127.651 170.714 127.856L169.688 128.785L165.735 132.319C162.262 135.376 157.251 139.79 151.061 145.255L102.289 187.991L102.129 188.123L101.986 187.983L100.144 186.167L76.1615 162.161H76.4389L43.1052 189.89L33.5188 197.821L30.954 199.917L30.2897 200.451L30.0542 200.623C30.1225 200.553 30.1956 200.487 30.2729 200.426L30.912 199.867L33.4347 197.722L42.937 189.709L76.1783 161.865L76.3212 161.741L76.4558 161.873L100.447 185.887L102.28 187.72H101.977L150.834 145.058L165.609 132.22L169.629 128.752L170.688 127.856C170.924 127.634 171.05 127.536 171.05 127.536Z" fill="#0F006A"/>
<path d="M201.819 106.398L176.28 96.4449C168.09 97.1517 165.584 105.765 167.173 111.238C165.277 110.737 163.267 110.839 161.433 111.529C159.6 112.219 158.039 113.461 156.977 115.076C155.914 116.691 155.406 118.595 155.525 120.512C155.643 122.428 156.383 124.258 157.637 125.736C156.54 126.083 155.525 126.642 154.652 127.378C153.778 128.115 153.065 129.014 152.552 130.024C152.04 131.034 151.739 132.134 151.668 133.259C151.597 134.384 151.757 135.512 152.138 136.576C153.87 140.792 159.706 142.847 163.759 140.685C166.467 139.264 168.283 136.42 171.185 135.442C173.909 134.53 176.861 135.442 179.728 135.73C186.851 136.362 193.931 132.385 197.867 126.549C201.802 120.714 202.862 113.309 201.819 106.398Z" fill="#EBEBEB"/>
<path d="M185.472 100.225C183.042 101.487 180.892 103.208 179.148 105.288C178.9 105.586 178.754 105.954 178.732 106.337C178.71 106.721 178.813 107.102 179.025 107.426C179.238 107.749 179.549 107.999 179.916 108.139C180.282 108.279 180.685 108.302 181.065 108.206C178.785 110.626 176.669 113.19 174.733 115.882C174.461 116.259 174.314 116.709 174.313 117.17C174.311 117.631 174.454 118.082 174.723 118.461C174.991 118.84 175.373 119.13 175.815 119.29C176.258 119.451 176.74 119.474 177.197 119.358C185.444 117.223 192.617 112.231 197.379 105.313L185.472 100.225Z" fill="#0F006A"/>
<g opacity="0.3">
<path d="M184.891 103.496C184.461 103.694 184.075 103.973 183.756 104.318C183.599 104.49 183.497 104.703 183.462 104.931C183.428 105.159 183.463 105.392 183.563 105.6C183.899 106.192 184.858 106.258 185.169 106.874C185.48 107.491 184.883 108.238 184.328 108.715L182.554 110.219C182.116 110.589 181.637 111.099 181.805 111.641C181.974 112.183 182.814 112.348 183.487 112.274C184.964 112.098 186.375 111.573 187.598 110.746C188.821 109.918 189.82 108.812 190.509 107.523L184.891 103.496Z" fill="black"/>
</g>
<path d="M225.44 93.4615C225.44 93.4615 225.44 93.5437 225.44 93.6341C226.381 98.6155 226.165 103.74 224.808 108.629C223.452 113.518 220.989 118.047 217.603 121.881L213.306 126.755L209.328 111.69L225.44 93.4615Z" fill="#0F006A"/>
<path d="M225.44 93.4615L225.365 93.5601L225.129 93.8231L224.288 94.834L220.983 98.6228C218.15 101.844 214.155 106.406 209.471 111.772V111.69C210.581 115.915 211.809 120.558 213.096 125.423C213.213 125.884 213.339 126.336 213.449 126.755H213.281L215.803 123.878C216.644 122.933 217.485 122.021 218.242 121.076C219.727 119.289 221.026 117.362 222.119 115.323C223.1 113.484 223.9 111.558 224.507 109.57C224.826 108.641 225.02 107.712 225.238 106.833C225.457 105.954 225.6 105.091 225.684 104.269C226.048 101.67 226.096 99.0382 225.827 96.4284C225.76 95.4997 225.617 94.7847 225.55 94.3162C225.482 93.8478 225.465 93.6834 225.449 93.5765C225.432 93.4697 225.449 93.6341 225.491 93.7574C225.533 93.8806 225.55 94.0697 225.592 94.308C225.667 94.7929 225.819 95.4915 225.903 96.4202C226.197 99.0357 226.169 101.676 225.819 104.285C225.735 105.107 225.55 105.97 225.39 106.866C225.23 107.762 224.978 108.682 224.667 109.619C224.061 111.63 223.259 113.578 222.27 115.438C221.182 117.5 219.88 119.447 218.385 121.248C217.62 122.202 216.779 123.106 215.955 124.059L213.432 126.936L213.314 127.075L213.264 126.895C213.154 126.475 213.037 126.015 212.911 125.563L209.303 111.822V111.781L220.941 98.631L224.305 94.8915L225.146 93.9053L225.373 93.6587L225.44 93.4615Z" fill="#0F006A"/>
<path d="M197.177 69.6277H196.992C191.885 69.4569 186.803 70.4079 182.121 72.4105C177.44 74.4131 173.277 77.4165 169.94 81.1994L165.735 86.0073L181.36 87.6099L197.177 69.6277Z" fill="#0F006A"/>
<path d="M197.177 69.6276L197.102 69.7098L196.891 69.9646L196.05 70.9426L192.804 74.6574L181.402 87.6674H181.36L167.115 86.2209L165.735 86.0812H165.55L165.668 85.9415L168.191 83.1143C169.032 82.1856 169.805 81.2487 170.638 80.3775C172.223 78.6943 173.979 77.1716 175.877 75.8327C177.59 74.6199 179.421 73.5739 181.343 72.7096C182.234 72.274 183.134 71.9535 183.983 71.6165C184.833 71.2796 185.665 71.0248 186.506 70.7947C189.059 70.0841 191.69 69.6758 194.343 69.5783C195.277 69.5208 196.025 69.5783 196.496 69.5783H197.059H197.253H196.496C196.008 69.5783 195.277 69.5783 194.352 69.6276C191.708 69.7486 189.088 70.1762 186.548 70.9015C185.707 71.0988 184.866 71.4111 184.025 71.7234C183.184 72.0357 182.285 72.3809 181.402 72.8164C179.496 73.6859 177.68 74.7317 175.978 75.9395C174.091 77.2762 172.347 78.7962 170.773 80.4762C169.932 81.3391 169.158 82.276 168.325 83.2047L165.803 86.0401L165.735 85.8757L167.123 86.0237L181.36 87.4866H181.284L192.645 74.6738L195.941 70.9673C196.328 70.5399 196.622 70.203 196.824 69.9728L197.059 69.718C197.144 69.6605 197.169 69.6276 197.177 69.6276Z" fill="#0F006A"/>
<path d="M253.409 33.8441C251.172 31.9538 242.065 34.14 229.863 40.3696C222.692 44.0309 216.163 48.7861 210.522 54.4562L174.641 95.1299L185.573 104.368L191.93 109.726L202.862 118.964L235.531 82.0377C238.709 78.4363 241.525 74.5447 243.94 70.4167C246.388 66.285 248.492 61.9672 250.23 57.5053C255.015 44.9885 255.621 35.7097 253.375 33.8277" fill="#F5F5F5"/>
<path d="M208.521 112.101C208.479 112.142 202.155 106.923 194.385 100.455C186.615 93.9875 180.342 88.7112 180.376 88.6701C180.409 88.629 186.758 93.8395 194.511 100.308C202.265 106.776 208.555 112.06 208.521 112.101Z" fill="#0F006A"/>
<path d="M207.302 113.227C207.302 113.227 200.944 108.058 193.174 101.581C185.404 95.1053 179.131 89.8372 179.165 89.7961C179.198 89.755 185.531 94.9656 193.301 101.442C201.071 107.918 207.344 113.186 207.302 113.227Z" fill="#0F006A"/>
<path d="M206.183 114.55C206.141 114.55 199.818 109.373 192.048 102.905C184.278 96.4366 178.004 91.1521 178.038 91.111C178.072 91.0699 184.404 96.2887 192.174 102.757C199.944 109.225 206.217 114.509 206.183 114.55Z" fill="#0F006A"/>
<path d="M205.057 115.865C205.057 115.865 198.691 110.696 190.921 104.22C183.151 97.7434 176.878 92.4753 176.911 92.4342C176.945 92.3931 183.277 97.6037 191.047 104.08C198.817 110.556 205.09 115.824 205.057 115.865Z" fill="#0F006A"/>
<path d="M203.93 117.189C203.93 117.23 197.564 112.011 189.794 105.543C182.024 99.0748 175.751 93.7903 175.793 93.7492C175.835 93.7081 182.15 98.9269 189.92 105.395C197.69 111.863 203.963 117.147 203.93 117.189Z" fill="#0F006A"/>
<path d="M211.347 81.6268L211.212 81.8405C211.12 81.9802 210.951 82.1692 210.758 82.4158C210.354 82.9171 209.749 83.6157 209 84.4786C207.512 86.1963 205.418 88.5879 203.114 91.1439C200.81 93.6999 198.657 96.075 197.11 97.7187L195.277 99.7076L194.764 100.234C194.708 100.299 194.646 100.36 194.579 100.414C194.626 100.342 194.68 100.273 194.739 100.209L195.218 99.6583L197.009 97.6283L202.963 90.996L208.925 84.3636L210.724 82.35C210.926 82.1035 211.103 81.9227 211.204 81.7912C211.305 81.6597 211.338 81.6186 211.347 81.6268Z" fill="#0F006A"/>
<path d="M225.44 93.4615C225.44 93.5026 219.091 88.251 211.347 81.7336C203.602 75.2163 197.345 69.8907 197.379 69.8496C197.413 69.8085 203.719 75.0684 211.473 81.5857C219.226 88.103 225.491 93.4204 225.44 93.4615Z" fill="#0F006A"/>
<path d="M201.777 96.9462C201.867 96.9194 201.964 96.9194 202.054 96.9462C202.306 97.0229 202.525 97.1789 202.677 97.39C202.795 97.5467 202.868 97.7314 202.889 97.925C202.91 98.1186 202.877 98.3141 202.794 98.4913C202.7 98.7153 202.537 98.9052 202.327 99.0351C202.118 99.1649 201.873 99.2283 201.625 99.2166C201.377 99.2049 201.139 99.1187 200.944 98.9697C200.748 98.8207 200.604 98.6163 200.532 98.3844C200.468 98.2002 200.455 98.0025 200.495 97.8118C200.535 97.6211 200.626 97.4443 200.759 97.2996C200.928 97.1035 201.159 96.9676 201.415 96.9133C201.506 96.8871 201.602 96.8871 201.693 96.9133C201.608 96.9451 201.521 96.9699 201.432 96.9873C201.204 97.0608 201.004 97.2014 200.86 97.39C200.754 97.5197 200.683 97.6739 200.655 97.838C200.627 98.0021 200.643 98.1705 200.701 98.3269C200.763 98.5234 200.886 98.6963 201.052 98.8222C201.219 98.9481 201.421 99.021 201.631 99.0308C201.841 99.0407 202.05 98.9871 202.228 98.8774C202.406 98.7676 202.545 98.607 202.626 98.4173C202.7 98.2662 202.733 98.099 202.721 97.932C202.709 97.7649 202.653 97.6037 202.559 97.464C202.433 97.2647 202.248 97.1072 202.029 97.0119C201.895 96.9708 201.777 96.9626 201.777 96.9462Z" fill="#0F006A"/>
<path d="M208.866 89.2125C208.956 89.1858 209.053 89.1858 209.143 89.2125C209.392 89.2919 209.607 89.4475 209.757 89.6563C209.875 89.813 209.949 89.9977 209.969 90.1913C209.99 90.3849 209.957 90.5804 209.875 90.7576C209.78 90.9816 209.617 91.1715 209.408 91.3014C209.198 91.4312 208.953 91.4947 208.705 91.483C208.458 91.4713 208.22 91.385 208.024 91.236C207.829 91.0871 207.685 90.8826 207.613 90.6507C207.548 90.4665 207.536 90.2689 207.575 90.0781C207.615 89.8874 207.707 89.7106 207.84 89.5659C208.009 89.3698 208.24 89.2339 208.496 89.1796C208.681 89.1796 208.782 89.1796 208.773 89.1796C208.765 89.1796 208.681 89.1796 208.513 89.2536C208.288 89.325 208.091 89.4628 207.949 89.6481C207.84 89.7778 207.767 89.9332 207.737 90.0989C207.708 90.2646 207.723 90.435 207.781 90.5932C207.846 90.7889 207.97 90.9608 208.137 91.0857C208.304 91.2107 208.506 91.283 208.716 91.2928C208.926 91.3026 209.135 91.2496 209.313 91.1407C209.492 91.0319 209.632 90.8724 209.715 90.6836C209.788 90.5319 209.819 90.3643 209.806 90.1972C209.793 90.0301 209.735 89.8692 209.64 89.7303C209.514 89.5332 209.333 89.3761 209.118 89.2782C208.958 89.2372 208.857 89.2289 208.866 89.2125Z" fill="#0F006A"/>
<g opacity="0.3">
<path d="M181.713 87.1332C181.713 87.1332 192.401 75.5697 197.16 69.6277C193.553 71.4111 189.466 73.4657 186.582 76.2025C183.622 79.1258 181.885 83.024 181.713 87.1332Z" fill="black"/>
</g>
<path d="M174.985 124.306C174.434 124.324 173.913 124.553 173.533 124.944C173.153 125.335 172.946 125.855 172.955 126.394C172.964 126.933 173.19 127.447 173.583 127.824C173.976 128.202 174.506 128.414 175.057 128.414C175.608 128.414 176.138 128.202 176.531 127.824C176.924 127.447 177.15 126.933 177.159 126.394C177.168 125.855 176.961 125.335 176.581 124.944C176.201 124.553 175.679 124.324 175.128 124.306" fill="#0F006A"/>
<path d="M235.39 69.1594C239.732 65.7523 240.426 59.55 236.939 55.3063C233.453 51.0625 227.107 50.3844 222.765 53.7915C218.423 57.1987 217.729 63.401 221.215 67.6447C224.701 71.8885 231.048 72.5666 235.39 69.1594Z" fill="white"/>
<path d="M239.097 62.7241C239.12 61.9176 239.089 61.1104 239.004 60.3078C238.709 58.1171 237.663 56.089 236.036 54.5548C234.932 53.5002 233.59 52.7146 232.117 52.2619C230.431 51.7454 228.634 51.6773 226.912 52.0646C225.982 52.2643 225.088 52.6025 224.263 53.0673C223.396 53.5387 222.61 54.1405 221.934 54.8507C220.49 56.3384 219.571 58.2378 219.309 60.272C219.047 62.3061 219.457 64.3688 220.479 66.1595C221.427 67.8308 222.861 69.1895 224.599 70.0633C226.07 70.803 227.707 71.1718 229.36 71.1359C231.014 71.1 232.632 70.6607 234.068 69.8578C236.024 68.7624 237.549 67.0582 238.399 65.0171C238.686 64.2612 238.919 63.4868 239.097 62.6994C239.095 62.9093 239.073 63.1185 239.029 63.324C239.001 63.5804 238.947 63.8336 238.87 64.0801C238.794 64.4221 238.69 64.7575 238.558 65.0828C237.871 66.8669 236.672 68.4192 235.104 69.5534C233.536 70.6876 231.667 71.3555 229.721 71.4769C227.887 71.5948 226.054 71.2286 224.414 70.4167C223.53 69.9899 222.717 69.4359 222.001 68.773C221.244 68.0826 220.605 67.2779 220.109 66.3896C219.033 64.5238 218.599 62.3694 218.872 60.2444C219.144 58.1193 220.109 56.1362 221.623 54.5877C222.325 53.844 223.149 53.2192 224.061 52.7385C224.922 52.2603 225.852 51.9112 226.819 51.703C228.612 51.3138 230.479 51.3989 232.226 51.9496C233.744 52.4324 235.124 53.2573 236.254 54.3576C237.897 55.9481 238.928 58.0441 239.172 60.2914C239.223 60.6369 239.243 60.9862 239.231 61.3352C239.251 61.5896 239.251 61.8451 239.231 62.0995C239.21 62.3118 239.165 62.5213 239.097 62.7241Z" fill="#0F006A"/>
<path d="M253.409 33.8441C251.172 31.9538 242.065 34.14 229.863 40.3696L250.222 57.5218C255.007 45.0049 255.612 35.7261 253.367 33.8441" fill="#0F006A"/>
<path d="M253.409 33.8441C253.409 33.8441 253.535 33.9591 253.771 34.2139C254.049 34.6363 254.256 35.0997 254.384 35.5864C254.772 37.4807 254.837 39.4244 254.578 41.3394C254.065 46.361 252.265 53.5604 248.557 61.9516C246.482 66.5284 244.018 70.927 241.191 75.1013C239.581 77.4223 237.844 79.6556 235.985 81.7912L230.023 88.5715L203.114 119.087L202.971 119.243L202.811 119.103L188.692 107.195L174.548 95.2696L174.388 95.1381L174.531 94.9737L201.441 64.4829L207.42 57.7272L210.27 54.4973C211.246 53.4454 212.263 52.5002 213.289 51.588C217.077 48.2197 221.182 45.2092 225.55 42.5969C229.155 40.5031 232.893 38.6365 236.742 37.0082C239.618 35.7581 242.586 34.7223 245.622 33.9098C247.529 33.3479 249.518 33.0953 251.509 33.1619C251.792 33.1958 252.073 33.248 252.349 33.3181C252.556 33.3746 252.759 33.4461 252.955 33.5318C253.249 33.7208 253.384 33.8276 253.384 33.8276L252.938 33.5729C252.742 33.4903 252.539 33.4217 252.333 33.3674C252.089 33.3017 251.794 33.2934 251.492 33.2359C249.52 33.2122 247.557 33.4895 245.673 34.0578C242.655 34.8979 239.704 35.9527 236.843 37.2137C233.019 38.8636 229.303 40.7437 225.718 42.8434C221.376 45.459 217.296 48.4694 213.533 51.8345C212.524 52.7468 211.498 53.7001 210.556 54.7357L207.705 57.9656L201.743 64.7377L174.834 95.2614V94.9573L188.978 106.874L203.122 118.791H202.811L229.721 88.3085L235.691 81.5446C237.549 79.4248 239.284 77.2051 240.888 74.8958C243.719 70.7496 246.188 66.3784 248.271 61.8283C252.013 53.4782 253.846 46.3116 254.41 41.2819C254.683 39.3702 254.643 37.4283 254.292 35.5289C254.176 35.0448 253.983 34.5816 253.72 34.1564C253.518 33.9674 253.409 33.8441 253.409 33.8441Z" fill="#0F006A"/>
<path d="M229.906 68.8223C229.732 68.1783 229.642 67.5157 229.637 66.8498C229.536 65.6335 229.46 63.9405 229.418 62.0749C229.376 60.2092 229.359 58.6724 229.334 57.2917C229.264 56.6332 229.264 55.9694 229.334 55.311C229.496 55.9542 229.587 56.6128 229.603 57.2752C229.704 58.4998 229.78 60.1928 229.813 62.0584C229.847 63.924 229.881 65.4609 229.906 66.8416C229.975 67.5001 229.975 68.1638 229.906 68.8223Z" fill="#0F006A"/>
<path d="M227.652 66.9402C227.355 65.5173 227.2 64.0695 227.189 62.6173C227.043 61.1716 227.043 59.7153 227.189 58.2697C227.491 59.6921 227.649 61.14 227.661 62.5926C227.806 64.0385 227.803 65.4949 227.652 66.9402Z" fill="#0F006A"/>
<path d="M181.713 145.099C180.784 144.802 179.788 144.766 178.84 144.996C177.891 145.226 177.028 145.711 176.348 146.397C175.793 147.029 175.462 147.819 175.403 148.65C175.343 149.48 175.56 150.307 176.02 151.008C175.217 151.364 174.539 151.944 174.071 152.675C173.602 153.406 173.365 154.255 173.388 155.117C173.429 155.97 173.68 156.801 174.119 157.539C174.558 158.277 175.173 158.901 175.911 159.358C177.423 160.252 179.229 160.546 180.956 160.18C182.692 159.838 184.261 158.94 185.415 157.628C186.569 156.315 187.242 154.663 187.326 152.935C187.41 151.206 186.901 149.499 185.879 148.086C184.858 146.672 183.383 145.632 181.688 145.132L181.713 145.099Z" fill="#EBEBEB"/>
<path d="M144.906 138.894C144.906 139.772 144.64 140.63 144.14 141.36C143.641 142.09 142.931 142.659 142.101 142.995C141.271 143.33 140.357 143.418 139.476 143.246C138.595 143.074 137.786 142.65 137.151 142.029C136.517 141.407 136.085 140.616 135.91 139.754C135.736 138.893 135.827 138 136.172 137.19C136.517 136.379 137.101 135.686 137.848 135.2C138.596 134.713 139.475 134.454 140.374 134.456C140.969 134.456 141.56 134.571 142.11 134.794C142.66 135.017 143.16 135.344 143.581 135.756C144.002 136.168 144.336 136.658 144.563 137.196C144.791 137.734 144.907 138.311 144.906 138.894Z" fill="#EBEBEB"/>
<path d="M40.5656 52.8207C38.8207 53.0425 37.0595 53.1167 35.3015 53.0426C33.5436 53.1163 31.7824 53.0421 30.0374 52.8207C31.7833 52.6097 33.5438 52.5382 35.3015 52.607C37.0593 52.5379 38.8198 52.6093 40.5656 52.8207Z" fill="#0F006A"/>
<path d="M40.5656 74.6656C38.8198 74.877 37.0593 74.9485 35.3015 74.8793C33.5438 74.9481 31.7833 74.8767 30.0374 74.6656C31.7828 74.4497 33.5438 74.3782 35.3015 74.452C37.0593 74.3778 38.8202 74.4493 40.5656 74.6656Z" fill="#0F006A"/>
<path d="M40.5656 96.5024C38.8198 96.7138 37.0593 96.7853 35.3015 96.7161C33.5438 96.7849 31.7833 96.7134 30.0374 96.5024C31.7833 96.2914 33.5438 96.2199 35.3015 96.2887C37.0593 96.2195 38.8198 96.291 40.5656 96.5024Z" fill="#0F006A"/>
<path d="M40.5656 118.339C38.8202 118.555 37.0593 118.627 35.3015 118.553C33.5438 118.627 31.7828 118.555 30.0374 118.339C31.7833 118.128 33.5438 118.057 35.3015 118.125C37.0593 118.056 38.8198 118.128 40.5656 118.339Z" fill="#0F006A"/>
<path d="M40.5656 140.184C38.8198 140.395 37.0593 140.467 35.3015 140.398C33.5438 140.466 31.7833 140.395 30.0374 140.184C31.7828 139.968 33.5438 139.897 35.3015 139.97C37.0593 139.896 38.8202 139.968 40.5656 140.184Z" fill="#0F006A"/>
<path d="M40.5656 162.054C38.8198 162.265 37.0593 162.336 35.3015 162.267C33.5438 162.336 31.7833 162.265 30.0374 162.054C31.7833 161.843 33.5438 161.771 35.3015 161.84C37.0593 161.771 38.8198 161.842 40.5656 162.054Z" fill="#0F006A"/>
</svg>
